<svg width="112" height="88" viewBox="0 0 112 88" fill="none" xmlns="http://www.w3.org/2000/svg">
<rect width="112" height="88" rx="12" fill="white"/>
<path d="M63.575 29.7746L51.85 41.4996L48.4375 38.0871C48.0375 37.6871 47.375 37.6871 46.975 38.0871L43.8625 41.1996C43.4625 41.5996 43.4625 42.2621 43.8625 42.6621L51.125 49.9246C51.525 50.3246 52.1875 50.3246 52.5875 49.9246L68.15 34.3621C68.55 33.9496 68.55 33.2996 68.15 32.8871L65.0375 29.7746C64.6375 29.3746 63.975 29.3746 63.575 29.7746ZM51.85 47.7246L46.05 41.9246L47.7 40.2746L51.1125 43.6871C51.5125 44.0871 52.175 44.0871 52.575 43.6871L64.2875 31.9746L65.9375 33.6246L51.85 47.7246Z" fill="#0276DD"/>
<path d="M86.8748 68.015L86.0498 65.3525C86.0373 65.3025 86.0123 65.2525 85.9873 65.19C85.3623 64.2275 84.2998 63.6275 83.1373 63.59L69.9373 61.565C69.8748 61.5525 69.8123 61.54 69.7498 61.5025L60.0873 56.2275C56.8373 54.8275 53.3248 54.1525 49.7998 54.24C42.7998 54.24 40.9998 55.365 40.2248 55.84L34.4623 59.14C34.1373 59.3275 33.7748 59.4275 33.4123 59.415H30.0998C27.9748 59.415 26.4748 60.8525 25.9873 63.315L24.9373 67.5025C24.7623 68.4775 25.0373 69.49 25.6873 70.2275C26.5248 71.24 27.7623 71.8275 29.0748 71.8525H32.2873C32.8623 74.6525 35.6123 76.465 38.4123 75.89C40.4373 75.4775 42.0249 73.89 42.4499 71.8525H68.5873C69.1623 74.6525 71.9123 76.465 74.7123 75.89C76.7374 75.4775 78.3248 73.89 78.7498 71.8525H84.3998C85.9123 71.8525 87.1373 70.6275 87.1373 69.115C87.1248 68.765 87.0373 68.3775 86.8748 68.015ZM50.8373 56.3525C53.6748 56.3775 56.4873 56.9525 59.0998 58.065L65.3373 61.465C61.6373 61.4025 56.3498 61.2775 50.8373 61.0025V56.3525ZM41.3249 57.615C41.8498 57.2775 43.2248 56.4275 48.7624 56.34V60.89C44.7999 60.665 40.7998 60.365 37.2498 59.9525L41.3249 57.615ZM37.3623 73.965C35.6373 73.965 34.2498 72.5775 34.2498 70.8525C34.2498 69.1275 35.6373 67.74 37.3623 67.74C39.0873 67.74 40.4748 69.1275 40.4748 70.8525C40.4748 72.5775 39.0748 73.965 37.3623 73.965ZM73.6498 73.965C71.9249 73.965 70.5373 72.5775 70.5373 70.8525C70.5373 69.1275 71.9249 67.74 73.6498 67.74C75.3748 67.74 76.7623 69.1275 76.7623 70.8525C76.7623 72.5775 75.3748 73.965 73.6498 73.965ZM84.9498 69.5025C84.8248 69.7025 84.6123 69.815 84.3873 69.815H78.7373C78.1623 67.015 75.4123 65.2025 72.6123 65.7775C70.5873 66.19 68.9998 67.7775 68.5748 69.815H42.4499C41.8748 67.015 39.1248 65.2025 36.3248 65.7775C34.2998 66.19 32.7123 67.7775 32.2873 69.815H29.0623C28.3748 69.79 27.7248 69.4775 27.2873 68.9525C27.0498 68.69 26.9248 68.34 26.9623 67.99L28.0123 63.8025C28.3123 62.29 29.0248 61.515 30.1123 61.515H33.2873C44.8123 63.3275 64.7498 63.5525 69.4998 63.59C69.5498 63.6025 82.8498 65.6525 82.8498 65.6525C83.3123 65.6775 83.7498 65.8275 84.1248 66.1025L84.9373 68.7025C84.9498 68.7525 84.9748 68.815 84.9998 68.865C85.0748 69.065 85.0623 69.315 84.9498 69.5025Z" fill="#0276DD"/>
<path d="M74.3484 36.4121C74.3484 36.4371 74.3484 36.4746 74.3484 36.4996V43.6496C74.3484 49.2121 72.5359 54.5246 69.3109 58.8621L71.1234 59.8496C74.5109 55.1996 76.3984 49.5496 76.3984 43.6496V36.4996C76.3984 36.4621 76.3984 36.4371 76.3984 36.4121C76.3984 36.3871 76.3984 36.3496 76.3984 36.3246V28.4621C76.3984 28.0621 76.1609 27.6871 75.7859 27.5246L56.4109 18.8871C56.1484 18.7746 55.8484 18.7746 55.5734 18.8871L36.1984 27.5246C35.8234 27.6871 35.5859 28.0496 35.5859 28.4621V43.6621C35.5859 47.8621 36.5484 51.9371 38.3109 55.5996L40.0984 54.5746C38.5234 51.2121 37.6484 47.4871 37.6484 43.6496V29.1246L55.9984 20.9371L74.3484 29.1246V36.3246C74.3484 36.3621 74.3484 36.3871 74.3484 36.4121Z" fill="#0276DD"/>
<path d="M32.7734 52.4137C33.2859 54.2137 33.9734 55.9512 34.7984 57.6262L36.5734 56.6012C34.6234 52.6387 33.5734 48.2137 33.5734 43.6512V32.4512V26.4762L55.9984 16.4762L78.4234 26.4637V43.6512C78.4234 49.8387 76.4859 55.7762 73.0109 60.7012L75.2609 61.0512C77.0109 58.4012 78.3484 55.4887 79.2359 52.4262L79.7609 50.3762C80.2359 48.2012 80.4734 45.9637 80.4859 43.6887V43.6012V41.5512V34.7762V32.7262V30.9012V25.8137C80.4859 25.4137 80.2484 25.0387 79.8734 24.8762L56.4109 14.4262C56.1484 14.3137 55.8484 14.3137 55.5734 14.4262L32.1359 24.8762C31.7609 25.0387 31.5234 25.4012 31.5234 25.8137V32.2512V32.4512V32.7137V34.7637V41.5387V43.5887V43.6512C31.5234 45.9387 31.7734 48.1762 32.2484 50.3637L32.7734 52.4137Z" fill="#0276DD"/>
</svg>
