<svg width="297" height="133" viewBox="0 0 297 133" fill="none" xmlns="http://www.w3.org/2000/svg">
<path fill-rule="evenodd" clip-rule="evenodd" d="M58.6401 30.3467H67.5301C75.6001 30.3467 80.8601 36.9767 79.8501 45.0267C74.3001 89.5567 28.8001 133.817 0.370117 130.817C23.8201 124.617 38.3701 111.967 46.3701 94.4967L15.1701 94.5767L21.8101 62.3466C22.0702 61.2451 22.6826 60.2585 23.5543 59.5366C24.426 58.8147 25.5094 58.3969 26.6401 58.3466H47.5401L52.2001 35.6967C52.5432 34.2246 53.3582 32.9051 54.5209 31.9392C55.6835 30.9733 57.1301 30.4141 58.6401 30.3467Z" fill="#0078DF"/>
<path d="M3.2 132.357C2.19778 132.36 1.19619 132.306 0.199997 132.197L0 129.477C21.26 123.857 35.72 112.857 44.14 95.8967L13.44 95.9767L20.44 62.0567C20.7588 60.639 21.5399 59.3675 22.6606 58.4424C23.7812 57.5173 25.1776 56.9912 26.63 56.9467H46.4L50.84 35.4067C51.2546 33.6259 52.2423 32.0304 53.6514 30.8652C55.0604 29.7 56.813 29.0295 58.64 28.9567H67.53C69.4787 28.9187 71.4127 29.301 73.2005 30.0776C74.9882 30.8541 76.5876 32.0066 77.89 33.4567C79.2563 35.0594 80.2617 36.9374 80.838 38.9631C81.4143 40.9888 81.548 43.1148 81.23 45.1967C78.6 66.1367 67.1 88.5567 49.68 106.697C34.05 122.967 16.94 132.357 3.2 132.357ZM48.54 93.1067L47.63 95.1067C40.72 110.247 29 121.327 12.71 128.157C39.6 120.427 73.71 83.0167 78.47 44.8767C78.7312 43.1865 78.6281 41.4601 78.1676 39.813C77.7071 38.1659 76.8999 36.6363 75.8 35.3267C74.757 34.1761 73.4786 33.2636 72.0516 32.651C70.6246 32.0385 69.0825 31.7403 67.53 31.7767H58.64C57.4524 31.8427 56.3177 32.2899 55.4044 33.0519C54.4911 33.8139 53.8478 34.8501 53.57 36.0067L48.67 59.7667H26.67C25.8575 59.8119 25.0816 60.1188 24.4579 60.6415C23.8343 61.1642 23.3965 61.8746 23.21 62.6667L16.91 93.2267L48.54 93.1067Z" fill="#0078DF"/>
<path fill-rule="evenodd" clip-rule="evenodd" d="M113.22 57.8969H99.8002C104.64 48.3769 114.61 25.8469 107.8 12.7669C107.41 12.0664 106.965 11.3977 106.47 10.7669C84.9702 -19.0331 27.1602 31.9069 27.1602 31.9069C130.16 -33.4831 119.16 62.1668 37.3702 123.727H71.2001L77.2001 94.8169H100.98C102.301 94.7686 103.569 94.2856 104.587 93.443C105.605 92.6003 106.316 91.4452 106.61 90.1568L113.22 57.8969Z" fill="#76BC21"/>
<path d="M72.2998 125.097H37.4098L36.5698 122.587C59.6498 105.217 78.6598 83.9072 90.1098 62.5871C100.46 43.3271 103.03 26.6371 97.0098 17.9371C92.8598 11.9371 77.8098 1.39712 27.9398 33.0571L26.2998 30.8371C27.8598 29.4671 64.7498 -2.73288 90.8998 0.187124C94.2324 0.498816 97.4574 1.53134 100.351 3.21316C103.245 4.89497 105.739 7.18586 107.66 9.92711L107.8 10.1271C108.281 10.7593 108.712 11.428 109.09 12.1271C115.72 24.9371 107.09 46.1271 102.09 56.5071H114.97L107.97 90.4171C107.61 92.0201 106.727 93.4576 105.459 94.5026C104.192 95.5475 102.612 96.1402 100.97 96.1871H78.2998L72.2998 125.097ZM41.4798 122.307H70.0398L75.9898 93.4071H100.91C101.91 93.3512 102.865 92.9748 103.634 92.3336C104.403 91.6924 104.945 90.8205 105.18 89.8471L111.48 59.2871H97.4798L98.4798 57.2871C103.06 48.2871 113.03 25.9871 106.48 13.4271C106.165 12.8513 105.807 12.2997 105.41 11.7771L105.26 11.5771C103.565 9.15302 101.362 7.12775 98.804 5.64245C96.2462 4.15714 93.3952 3.24758 90.4498 2.97713C80.2998 1.80713 66.2998 6.55711 50.0498 16.7971C48.4398 17.7971 46.8798 18.7971 45.3798 19.7971C72.1198 6.20711 91.3298 4.79713 99.2898 16.3171C105.93 25.8971 103.41 43.6771 92.5598 63.8771C81.4698 84.5571 63.4298 105.177 41.5098 122.307H41.4798Z" fill="#76BC21"/>
<path fill-rule="evenodd" clip-rule="evenodd" d="M139.43 54.4962L139.6 61.0862H141.86L141.18 39.3262H138.6L129.6 61.0862H131.92L134.57 54.4962H139.43ZM135.21 52.6562L137.43 47.0362C138.05 45.5862 138.66 43.6862 139.24 42.0362H139.34C139.34 43.6862 139.34 45.5262 139.34 47.0362L139.43 52.6562H135.21ZM143.49 60.4362C144.356 60.9878 145.363 61.2793 146.39 61.2762C149.3 61.2762 151.49 59.5962 151.49 56.2762C151.434 55.477 151.211 54.6985 150.833 53.9919C150.456 53.2853 149.933 52.6665 149.3 52.1762C148.871 51.8813 148.516 51.4915 148.263 51.037C148.01 50.5826 147.865 50.0758 147.84 49.5562C147.826 49.2261 147.882 48.8967 148.005 48.5901C148.128 48.2835 148.315 48.0065 148.554 47.7777C148.792 47.5488 149.076 47.3733 149.388 47.2627C149.699 47.1521 150.03 47.1089 150.36 47.1362C150.994 47.1365 151.618 47.3019 152.17 47.6162L152.82 45.8162C152.07 45.3969 151.218 45.1928 150.36 45.2262C149.725 45.1928 149.091 45.2911 148.497 45.5149C147.902 45.7387 147.361 46.0832 146.906 46.5266C146.452 46.97 146.094 47.5027 145.855 48.0912C145.616 48.6798 145.502 49.3114 145.52 49.9462C145.58 50.683 145.789 51.3999 146.132 52.0545C146.476 52.709 146.948 53.2878 147.52 53.7562C147.998 54.0998 148.39 54.5494 148.666 55.0698C148.942 55.5902 149.094 56.1674 149.11 56.7562C149.136 57.1 149.091 57.4455 148.975 57.7705C148.86 58.0954 148.677 58.3924 148.44 58.6423C148.202 58.8922 147.915 59.0893 147.596 59.2209C147.277 59.3525 146.934 59.4156 146.59 59.4062C145.726 59.4135 144.881 59.1552 144.17 58.6662L143.46 60.4362H143.49ZM155.56 61.0862L158.56 45.4562H156.24L153.24 61.0862H155.56ZM157.92 43.0062C158.137 43.0117 158.354 42.9728 158.556 42.8917C158.758 42.8106 158.942 42.6891 159.095 42.5346C159.249 42.3802 159.369 42.196 159.449 41.9933C159.529 41.7907 159.567 41.5739 159.56 41.3562C159.601 41.1707 159.6 40.9781 159.555 40.7934C159.51 40.6087 159.423 40.4367 159.302 40.2907C159.18 40.1448 159.026 40.0288 158.852 39.9517C158.679 39.8746 158.49 39.8385 158.3 39.8462C157.876 39.8784 157.479 40.0673 157.187 40.376C156.895 40.6848 156.728 41.0912 156.72 41.5162C156.72 42.3962 157.08 43.0062 157.92 43.0062ZM158.37 60.4362L159.08 58.6662C159.791 59.1552 160.636 59.4135 161.5 59.4062C161.844 59.4156 162.187 59.3525 162.506 59.2209C162.825 59.0893 163.112 58.8922 163.35 58.6423C163.587 58.3924 163.77 58.0954 163.885 57.7705C164.001 57.4455 164.046 57.1 164.02 56.7562C164.004 56.1684 163.854 55.5921 163.58 55.0718C163.306 54.5516 162.916 54.1014 162.44 53.7562C161.866 53.2889 161.394 52.7105 161.05 52.0557C160.706 51.4009 160.499 50.6834 160.44 49.9462C160.422 49.3114 160.536 48.6798 160.775 48.0912C161.014 47.5027 161.372 46.97 161.826 46.5266C162.281 46.0832 162.823 45.7387 163.417 45.5149C164.011 45.2911 164.645 45.1928 165.28 45.2262C166.138 45.1928 166.99 45.3969 167.74 45.8162L167.09 47.6162C166.538 47.3019 165.914 47.1365 165.28 47.1362C164.951 47.1088 164.62 47.1519 164.309 47.2626C163.998 47.3733 163.714 47.549 163.477 47.778C163.239 48.0071 163.053 48.2842 162.931 48.5908C162.809 48.8974 162.754 49.2265 162.77 49.5562C162.793 50.0751 162.936 50.5816 163.188 51.0361C163.439 51.4906 163.792 51.8808 164.22 52.1762C164.855 52.6647 165.379 53.2831 165.757 53.9901C166.134 54.6971 166.357 55.4764 166.41 56.2762C166.41 59.6262 164.22 61.2762 161.31 61.2762C160.283 61.2776 159.277 60.9862 158.41 60.4362H158.37ZM171.93 42.8162L171.44 45.4562H169.54L169.22 47.2362H171.09L169.38 56.2362C169.201 57.0748 169.103 57.9288 169.09 58.7862C169.066 59.1267 169.117 59.4684 169.239 59.787C169.362 60.1056 169.553 60.3934 169.799 60.63C170.045 60.8666 170.34 61.0462 170.664 61.1562C170.987 61.2661 171.33 61.3037 171.67 61.2662C172.238 61.2849 172.805 61.2105 173.35 61.0462L173.54 59.2362C173.233 59.289 172.921 59.3092 172.61 59.2962C171.83 59.2962 171.51 58.8762 171.51 58.1062C171.525 57.4344 171.599 56.7653 171.73 56.1062L173.41 47.1962H176.35L176.71 45.4162H173.77L174.51 41.7662L171.93 42.7662V42.8162ZM183.77 58.5562L184.1 60.3562C182.98 61.0014 181.712 61.3459 180.42 61.3562C177.13 61.3562 176.06 58.8362 176.06 55.8362C176.06 51.6062 178.42 45.3162 182.9 45.3162C185.16 45.3162 186.1 47.0262 186.1 48.8362C186.1 52.6462 182.77 54.2562 178.48 54.2562C178.343 55.3081 178.377 56.375 178.58 57.4162C178.669 57.9821 178.96 58.4965 179.4 58.8642C179.839 59.2319 180.397 59.428 180.97 59.4162C181.961 59.4004 182.93 59.1134 183.77 58.5862V58.5562ZM183.94 48.9662C183.94 47.8662 183.45 47.2562 182.55 47.2562C181.13 47.2562 179.64 48.9662 178.77 52.3562C181.29 52.3562 183.94 51.5162 183.94 48.9662ZM188.75 61.1362L190.39 52.4162C190.94 49.4762 192.69 47.2562 194.14 47.2562C195.14 47.2562 195.49 47.8662 195.49 48.8362C195.486 49.5616 195.412 50.2849 195.27 50.9962L193.36 61.1362H195.69L197.59 50.9662C197.765 50.1168 197.862 49.2532 197.88 48.3862C197.88 46.7362 197.14 45.2462 195.2 45.2462C193.65 45.2462 192.27 46.0562 191.01 47.9662H190.94L191.2 45.5062H189.2C189.03 46.7662 188.81 48.5762 188.39 50.8662L186.45 61.1362H188.75ZM206.44 58.9362C205.831 59.1785 205.184 59.3105 204.53 59.3262C202.73 59.3262 202.05 57.7762 202.05 55.4862C202.05 51.9662 203.98 47.3162 207.21 47.3162C207.604 47.3185 207.995 47.3826 208.37 47.5062L208.99 45.5062C208.499 45.3028 207.969 45.2139 207.44 45.2462C202.34 45.2462 199.66 51.1462 199.66 55.7062C199.66 58.7062 200.79 61.2862 203.92 61.2862C204.791 61.3084 205.658 61.1555 206.47 60.8362V58.8962L206.44 58.9362ZM210.89 61.1362H208.57L211.57 45.5062H213.89L210.89 61.1362ZM213.3 43.0062C213.517 43.0103 213.734 42.9704 213.936 42.8889C214.138 42.8074 214.321 42.686 214.475 42.532C214.629 42.3779 214.751 42.1944 214.832 41.9924C214.914 41.7904 214.954 41.574 214.95 41.3562C214.989 41.1709 214.986 40.9791 214.94 40.7952C214.895 40.6113 214.808 40.4402 214.687 40.2948C214.565 40.1493 214.413 40.0334 214.24 39.9557C214.067 39.8779 213.879 39.8405 213.69 39.8462C213.265 39.8782 212.867 40.0668 212.573 40.3753C212.28 40.6838 212.111 41.0903 212.1 41.5162C212.1 42.3962 212.46 43.0062 213.3 43.0062ZM223.76 61.0862C223.781 58.9261 224.009 56.773 224.44 54.6562L226.24 45.7462C225.323 45.3985 224.35 45.2255 223.37 45.2362C217.37 45.2362 214.82 52.2362 214.82 56.9562C214.82 59.7962 215.91 61.3462 217.75 61.3462C218.88 61.3462 220.27 60.7562 221.75 58.1162H221.85C221.75 59.3362 221.65 60.2162 221.62 61.1162L223.76 61.0862ZM222.47 53.1462C221.85 56.2762 220.18 59.3362 218.59 59.3362C217.5 59.3362 217.11 58.2162 217.17 56.2462C217.24 52.8562 219.17 47.1062 222.66 47.1062C222.998 47.0928 223.336 47.1367 223.66 47.2362L222.47 53.1462Z" fill="#212721"/>
<path fill-rule="evenodd" clip-rule="evenodd" d="M117.84 128.647H130.45L134.57 106.897C135.91 106.987 137.7 107.257 139.85 107.257C147.19 107.257 154.26 105.467 159.18 101.617C161.756 99.6239 163.831 97.0577 165.24 94.1221C166.65 91.1865 167.355 87.9626 167.3 84.7065C167.3 78.8965 164.88 74.5965 160.77 71.8265C156.38 68.8265 150.21 67.8865 144.77 67.8865C139.48 67.8122 134.198 68.3219 129.02 69.4065L117.84 128.647ZM139.94 78.5565C141.687 78.2963 143.453 78.1759 145.22 78.1965C150.14 78.1965 154.35 80.0765 154.35 85.8065C154.35 91.8865 149.24 96.8065 141.55 96.8065C139.873 96.8306 138.197 96.6832 136.55 96.3665L139.95 78.5565H139.94ZM163.64 128.667L175.09 68.3565H187.98L178.67 117.357H201.85L199.7 128.637L163.64 128.667ZM210.3 68.3365L203.95 101.977C203.398 104.747 203.097 107.562 203.05 110.387C203.05 123.187 210.66 129.717 223.05 129.627C239.51 129.627 247.48 120.857 250.97 102.627L257.5 68.3565H244.7L238.08 103.167C235.93 114.347 231.55 118.827 224.75 118.827C219.02 118.827 215.98 115.067 215.98 110.147C215.97 107.772 216.208 105.402 216.69 103.077L223.23 68.3565L210.3 68.3365ZM251 125.337L255.3 114.687C259.63 117.217 264.554 118.552 269.57 118.557C274.57 118.557 279.14 116.227 279.14 111.557C279.14 108.067 276.55 105.916 271 102.966C264.65 99.5665 258.56 94.8165 258.56 87.0365C258.56 74.7765 269.12 67.4365 282.27 67.4365C289.61 67.4365 293.91 69.0465 296.5 70.4365L292.5 81.0865C289.024 79.3547 285.182 78.4868 281.3 78.5565C275.21 78.5565 272.08 81.5065 272.08 84.8165C272.08 88.3065 275.75 90.5465 280.85 93.4065C288.19 97.1665 292.85 102.087 292.85 109.337C292.85 122.757 281.76 129.647 268.33 129.647C259.9 129.557 253.91 127.397 251.04 125.337H251Z" fill="#0078DF"/>
</svg>
