<svg width="65" height="64" viewBox="0 0 65 64" fill="none" xmlns="http://www.w3.org/2000/svg">
<path d="M47.2578 44.0967C46.6623 44.0955 46.0798 44.2711 45.5841 44.6011C45.0883 44.9312 44.7017 45.4008 44.473 45.9507C44.2443 46.5006 44.1838 47.106 44.2993 47.6902C44.4148 48.2744 44.701 48.8113 45.1217 49.2328C45.5424 49.6543 46.0787 49.9415 46.6627 50.0581C47.2468 50.1747 47.8522 50.1155 48.4025 49.8878C48.9529 49.6602 49.4233 49.2744 49.7543 48.7793C50.0852 48.2842 50.2619 47.7021 50.2619 47.1065C50.2619 46.3093 49.9456 45.5446 49.3824 44.9803C48.8192 44.416 48.0551 44.0982 47.2578 44.0967ZM47.2578 48.5365C46.9734 48.5376 46.695 48.4543 46.458 48.2969C46.221 48.1396 46.0361 47.9155 45.9267 47.6529C45.8173 47.3903 45.7884 47.1011 45.8436 46.8221C45.8988 46.5431 46.0357 46.2867 46.2368 46.0856C46.438 45.8844 46.6943 45.7476 46.9734 45.6924C47.2524 45.6371 47.5416 45.6661 47.8042 45.7754C48.0667 45.8848 48.2909 46.0697 48.4482 46.3067C48.6055 46.5437 48.6889 46.8221 48.6878 47.1065C48.6863 47.4853 48.5351 47.8482 48.2673 48.116C47.9994 48.3838 47.6366 48.535 47.2578 48.5365Z" fill="#0276DD"/>
<path d="M19.4942 44.0967C18.8989 44.0967 18.317 44.2732 17.8221 44.6039C17.3271 44.9347 16.9413 45.4047 16.7135 45.9547C16.4857 46.5047 16.4261 47.1099 16.5422 47.6937C16.6583 48.2776 16.945 48.8139 17.3659 49.2348C17.7869 49.6557 18.3232 49.9424 18.907 50.0586C19.4909 50.1747 20.0961 50.1151 20.6461 49.8873C21.196 49.6595 21.6661 49.2737 21.9968 48.7787C22.3276 48.2837 22.5041 47.7018 22.5041 47.1065C22.5041 46.3083 22.187 45.5427 21.6225 44.9782C21.0581 44.4138 20.2925 44.0967 19.4942 44.0967ZM19.4942 48.5365C19.21 48.5365 18.9322 48.4521 18.696 48.2941C18.4598 48.1361 18.2757 47.9115 18.1672 47.6489C18.0587 47.3862 18.0307 47.0972 18.0865 46.8185C18.1424 46.5399 18.2797 46.2841 18.4811 46.0835C18.6825 45.8829 18.9388 45.7467 19.2177 45.6919C19.4966 45.6372 19.7854 45.6664 20.0477 45.776C20.3099 45.8855 20.5338 46.0704 20.6908 46.3073C20.8479 46.5442 20.9311 46.8223 20.93 47.1065C20.9285 47.4863 20.7765 47.85 20.5074 48.118C20.2383 48.386 19.874 48.5365 19.4942 48.5365Z" fill="#0276DD"/>
<path d="M57.094 42.4601V35.6389C57.094 33.5458 55.7447 32.0813 53.8131 32.0813H53.0232C52.3659 32.0813 52.1352 31.7757 51.5067 30.807L51.2127 30.363L48.174 25.8482L48.0125 25.606C47.211 24.3952 46.375 23.1439 43.9763 23.1439H38.5562V19.8919C38.5547 19.2486 38.2985 18.632 37.8436 18.1771C37.3887 17.7222 36.7721 17.4659 36.1288 17.4644C35.4854 17.4659 34.8689 17.7222 34.414 18.1771C33.9591 18.632 33.7028 19.2486 33.7013 19.8919V26.5516H30.1955L21.1371 17.5336L21.0852 17.4932L15.3192 11.7272C14.9547 11.311 14.4857 10.9997 13.9606 10.8253C13.4356 10.651 12.8735 10.62 12.3324 10.7355C11.8955 10.8595 11.4986 11.0955 11.1811 11.4202C10.8635 11.7448 10.6363 12.1468 10.5219 12.5864C10.3953 13.1268 10.4163 13.6913 10.5826 14.2208C10.749 14.7503 11.0546 15.2253 11.4675 15.5962L11.7789 15.9018V21.6332C11.1943 21.8036 10.6808 22.1591 10.3155 22.6462C9.95008 23.1332 9.75254 23.7257 9.75254 24.3346C9.75254 24.9435 9.95008 25.536 10.3155 26.0231C10.6808 26.5102 11.1943 26.8656 11.7789 27.036V30.1266C11.7789 31.0664 10.816 31.0953 10.7064 31.0953C10.5969 31.0953 9.63394 31.0664 9.63394 30.1266V28.8638C9.64328 28.7548 9.62987 28.645 9.59456 28.5415C9.55925 28.4379 9.5028 28.3428 9.4288 28.2622C9.35481 28.1816 9.26489 28.1172 9.16471 28.0732C9.06454 28.0292 8.95631 28.0065 8.84689 28.0065C8.73747 28.0065 8.62923 28.0292 8.52906 28.0732C8.42889 28.1172 8.33897 28.1816 8.26497 28.2622C8.19098 28.3428 8.13453 28.4379 8.09921 28.5415C8.0639 28.645 8.05049 28.7548 8.05983 28.8638V30.1266C8.05983 30.8285 8.33866 31.5017 8.83499 31.998C9.33133 32.4943 10.0045 32.7732 10.7064 32.7732C11.4083 32.7732 12.0815 32.4943 12.5778 31.998C13.0742 31.5017 13.353 30.8285 13.353 30.1266V27.0879C13.9376 26.9175 14.4511 26.5621 14.8165 26.075C15.1819 25.5879 15.3794 24.9954 15.3794 24.3865C15.3794 23.7776 15.1819 23.1851 14.8165 22.6981C14.4511 22.211 13.9376 21.8555 13.353 21.6851V17.5221L24.1528 28.2526C23.7977 28.8152 23.6097 29.4671 23.6108 30.1324V34.8547H9.19572C8.79911 34.8547 8.41866 35.0119 8.13768 35.2918C7.8567 35.5717 7.6981 35.9515 7.69657 36.3481V42.5293C7.10008 42.699 6.58524 43.0791 6.24732 43.5991C5.90941 44.1191 5.7713 44.744 5.85851 45.358C5.94573 45.972 6.25237 46.5337 6.72173 46.939C7.19108 47.3444 7.79138 47.5661 8.41155 47.563H13.1916C13.3101 49.1702 14.0323 50.6731 15.213 51.7699C16.3937 52.8668 17.9457 53.4764 19.5573 53.4764C21.1688 53.4764 22.7207 52.8668 23.9015 51.7699C25.0822 50.6731 25.8044 49.1702 25.9229 47.563H40.9146C41.0331 49.1702 41.7553 50.6731 42.936 51.7699C44.1167 52.8668 45.6686 53.4764 47.2802 53.4764C48.8918 53.4764 50.4437 52.8668 51.6245 51.7699C52.8052 50.6731 53.5274 49.1702 53.6459 47.563H56.5635C57.2002 47.5722 57.8175 47.3443 58.2955 46.9237C58.7735 46.5031 59.078 45.9197 59.1499 45.2871C59.2218 44.6545 59.0559 44.0177 58.6845 43.5005C58.313 42.9834 57.7626 42.6228 57.1401 42.4889L57.094 42.4601ZM38.5217 35.6101V24.7181H43.9417C45.5043 24.7181 45.9195 25.3408 46.6748 26.4767L46.8363 26.7246L49.8807 31.2452L50.1575 31.6661C50.8206 32.6925 51.4491 33.6554 52.9944 33.6554H53.8131C55.0701 33.6554 55.5429 34.6817 55.5429 35.6389V36.0713H53.2365C52.739 36.0713 52.2618 36.2686 51.9094 36.6199C51.5571 36.9711 51.3583 37.4478 51.3568 37.9453V38.7756C51.3583 39.2731 51.5571 39.7498 51.9094 40.101C52.2618 40.4523 52.739 40.6496 53.2365 40.6496H55.5429V42.3794H51.5759C50.4001 41.3069 48.866 40.7123 47.2745 40.7123C45.683 40.7123 44.1489 41.3069 42.973 42.3794H38.5447L38.5217 35.6101ZM55.5199 37.6224V39.0466H53.2135C53.1334 39.0466 53.0565 39.0152 52.9994 38.9591C52.9422 38.9031 52.9094 38.8268 52.9079 38.7468V37.9222C52.9094 37.8422 52.9422 37.7659 52.9994 37.7099C53.0565 37.6538 53.1334 37.6224 53.2135 37.6224H55.5199ZM35.2351 27.3185V19.8919C35.238 19.6665 35.3289 19.4512 35.4883 19.2918C35.6477 19.1324 35.863 19.0415 36.0884 19.0385C36.3138 19.0415 36.5291 19.1324 36.6885 19.2918C36.8479 19.4512 36.9388 19.6665 36.9418 19.8919V34.8259H35.212L35.2351 27.3185ZM33.6609 28.1027V34.8028H25.1272V30.1266C25.1318 29.6129 25.339 29.1218 25.7038 28.76V28.7312C26.0715 28.3683 26.5653 28.1617 27.0819 28.1546L33.6609 28.1027ZM13.7567 24.3606C13.7567 24.6069 13.6836 24.8477 13.5467 25.0525C13.4099 25.2573 13.2154 25.417 12.9878 25.5112C12.7602 25.6055 12.5098 25.6302 12.2682 25.5821C12.0266 25.534 11.8047 25.4154 11.6305 25.2412C11.4563 25.0671 11.3377 24.8451 11.2897 24.6035C11.2416 24.3619 11.2663 24.1115 11.3605 23.8839C11.4548 23.6564 11.6144 23.4619 11.8192 23.325C12.0241 23.1882 12.2648 23.1151 12.5112 23.1151C12.8415 23.1151 13.1583 23.2463 13.3918 23.4799C13.6254 23.7135 13.7567 24.0302 13.7567 24.3606ZM13.0647 15.0427L12.5227 14.5007C12.31 14.3221 12.1484 14.0904 12.0542 13.8291C11.9601 13.5678 11.9367 13.2863 11.9865 13.0131C12.0291 12.8409 12.1159 12.6828 12.2382 12.5544C12.3606 12.426 12.5143 12.3317 12.6842 12.2808C12.9582 12.24 13.2382 12.2718 13.4962 12.373C13.7542 12.4742 13.9812 12.6412 14.1545 12.8574L20.2549 18.9232C20.2549 18.9232 20.2895 18.9232 20.3068 18.9578L27.9237 26.5459H27.105C26.4285 26.5514 25.7679 26.7516 25.2022 27.1225L13.0647 15.0427ZM9.20726 36.3769H36.9475V42.3736H23.7895C22.6146 41.3015 21.0815 40.7071 19.4909 40.7071C17.9004 40.7071 16.3673 41.3015 15.1924 42.3736H9.20149L9.20726 36.3769ZM13.2435 45.937H8.37696C8.23997 45.9474 8.1023 45.9295 7.97259 45.8842C7.84287 45.839 7.72389 45.7674 7.62312 45.674C7.52236 45.5806 7.44199 45.4674 7.38701 45.3415C7.33204 45.2156 7.30364 45.0797 7.30364 44.9424C7.30364 44.805 7.33204 44.6691 7.38701 44.5432C7.44199 44.4173 7.52236 44.3041 7.62312 44.2107C7.72389 44.1173 7.84287 44.0458 7.97259 44.0005C8.1023 43.9552 8.23997 43.9373 8.37696 43.9477H13.9642C13.6138 44.5743 13.3684 45.2541 13.2377 45.96L13.2435 45.937ZM19.5227 51.8875C18.5727 51.8875 17.6441 51.6058 16.8542 51.078C16.0643 50.5503 15.4487 49.8001 15.0852 48.9225C14.7217 48.0448 14.6265 47.0791 14.8118 46.1474C14.9972 45.2157 15.4546 44.3599 16.1264 43.6881C16.7981 43.0164 17.6539 42.5589 18.5856 42.3736C19.5173 42.1883 20.4831 42.2834 21.3607 42.6469C22.2384 43.0105 22.9885 43.6261 23.5163 44.416C24.0441 45.2058 24.3257 46.1345 24.3257 47.0844C24.3273 47.7191 24.2033 48.3479 23.9609 48.9344C23.7186 49.521 23.3626 50.0539 22.9135 50.5025C22.4645 50.951 21.9312 51.3063 21.3443 51.548C20.7574 51.7896 20.1285 51.9129 19.4938 51.9106L19.5227 51.8875ZM41.0068 45.937H25.7672C25.6412 45.2379 25.3975 44.5653 25.0465 43.9477H41.6987C41.3452 44.5724 41.1015 45.253 40.978 45.96L41.0068 45.937ZM47.2572 51.9106C46.3075 51.9095 45.3794 51.6268 44.5903 51.0983C43.8012 50.5698 43.1865 49.8193 42.8238 48.9416C42.4612 48.0638 42.3669 47.0983 42.5529 46.1669C42.7388 45.2356 43.1967 44.3803 43.8687 43.7092C44.5406 43.038 45.3965 42.5811 46.328 42.3963C47.2596 42.2114 48.225 42.3069 49.1023 42.6706C49.9797 43.0343 50.7294 43.6499 51.257 44.4396C51.7845 45.2294 52.066 46.1578 52.066 47.1075C52.063 48.3814 51.5552 49.6022 50.6538 50.5025C49.7525 51.4027 48.5311 51.9091 47.2572 51.9106ZM56.5404 45.96H53.5306C53.4046 45.261 53.1609 44.5883 52.8098 43.9708H56.5404C56.6774 43.9603 56.8151 43.9783 56.9448 44.0236C57.0745 44.0688 57.1935 44.1404 57.2943 44.2338C57.395 44.3271 57.4754 44.4403 57.5304 44.5662C57.5854 44.6921 57.6138 44.828 57.6138 44.9654C57.6138 45.1028 57.5854 45.2387 57.5304 45.3646C57.4754 45.4905 57.395 45.6037 57.2943 45.6971C57.1935 45.7904 57.0745 45.862 56.9448 45.9073C56.8151 45.9525 56.6774 45.9705 56.5404 45.96Z" fill="#0276DD"/>
<path d="M46.9278 33.0427C47.1786 33.0427 47.4195 32.9443 47.5985 32.7685C47.7776 32.5927 47.8804 32.3537 47.8849 32.1028V31.8953C47.8908 31.5727 47.7916 31.257 47.6024 30.9958L45.1057 27.4612C44.9234 27.1822 44.6706 26.9563 44.3729 26.8065C44.0752 26.6566 43.7432 26.5881 43.4105 26.6078H41.0695C40.8178 26.6009 40.5728 26.69 40.3843 26.857C40.1959 27.0241 40.078 27.2566 40.0547 27.5073V31.4859C40.065 31.702 40.118 31.914 40.2108 32.1095C40.3035 32.3051 40.434 32.4803 40.5949 32.625C40.7557 32.7698 40.9437 32.8812 41.1479 32.9529C41.3521 33.0246 41.5684 33.0551 41.7845 33.0427H46.9451H46.9278ZM41.7672 31.4686C41.7212 31.4709 41.6754 31.4609 41.6346 31.4397V28.1819H43.4163C43.6931 28.1819 43.7219 28.2223 43.8314 28.3722L46.0167 31.4686H41.7672Z" fill="#0276DD"/>
</svg>
