<?xml version="1.0" encoding="utf-8"?>
<!-- Generator: Adobe Illustrator 22.0.1, SVG Export Plug-In . SVG Version: 6.00 Build 0)  -->
<svg version="1.1" id="Layer_1" xmlns="http://www.w3.org/2000/svg" xmlns:xlink="http://www.w3.org/1999/xlink" x="0px" y="0px"
	 viewBox="0 0 700 700" style="enable-background:new 0 0 700 700;" xml:space="preserve">
<style type="text/css">
	.st0{fill:#0071CE;}
</style>
<g>
	<path class="st0" d="M189.4,254.9c0,6.9,5.4,12.3,12.3,12.3H363c6.9,0,12.3-5.4,12.3-12.3s-5.4-12.3-12.3-12.3H202.2
		C195.3,242.7,189.4,248.5,189.4,254.9L189.4,254.9z"/>
	<path class="st0" d="M363,307.4H202.2c-6.9,0-12.3,5.4-12.3,12.3s5.4,12.3,12.3,12.3h161.3c6.9,0,12.3-5.4,12.3-12.3
		S369.9,307.4,363,307.4L363,307.4z"/>
	<path class="st0" d="M363,371.7H202.2c-6.9,0-12.3,5.4-12.3,12.3c0,6.9,5.4,12.3,12.3,12.3h161.3c6.9,0,12.3-5.4,12.3-12.3
		C375.8,377.6,369.9,371.7,363,371.7L363,371.7z"/>
	<path class="st0" d="M363,436.5H202.2c-6.9,0-12.3,5.4-12.3,12.3s5.4,12.3,12.3,12.3h161.3c6.9,0,12.3-5.4,12.3-12.3
		S369.9,436.5,363,436.5L363,436.5z"/>
	<path class="st0" d="M417.5,362.4l19.6-19.6c1.5-1.5,3.4-2.9,4.9-4.4V183.8c0-6.9-5.4-12.3-12.3-12.3h-44.2V196h31.9L417.5,362.4z"
		/>
	<path class="st0" d="M146.1,508.2V196H178v-24.5h-44.2c-6.9,0-12.3,5.4-12.3,12.3v336.7c-0.5,6.9,5.4,12.3,12.3,12.3H337
		c1-1,2-2.5,3.4-3.4l23.6-21.6l-217.9,0L146.1,508.2z"/>
	<path class="st0" d="M361.1,163.6c0-7.9-6.4-14.2-14.2-14.2h-24.5c-4.4-18.2-20.6-31.4-40.2-31.4c-19.6,0-35.8,13.7-40.2,31.4
		h-24.5c-7.9,0-14.2,6.4-14.2,14.2V196h158.5l0-32.4H361.1z M282.1,176.9c-9.3,0-17.2-7.9-17.2-17.2c0-9.3,7.9-17.2,17.2-17.2
		s17.2,7.9,17.2,17.2C298.7,169,291.4,176.9,282.1,176.9z"/>
	<path class="st0" d="M575,463.5l-4.4-3.9c-4.4-4.4-12.3-4.4-16.7,0l-49.1,49.1c-4.4,4.4-4.4,12.3,0,16.7l3.9,3.9
		c4.4,4.4,12.3,4.4,16.7,0l49.1-49.1C579.5,475.8,579.5,467.9,575,463.5L575,463.5z"/>
	<path class="st0" d="M405.7,426.2l3.9,3.9c4.4,4.4,12.3,4.4,16.7,0l49.1-49.1c4.4-4.4,4.4-12.3,0-16.7l-3.9-3.9
		c-4.4-4.4-12.3-4.4-16.7,0l-49.1,49.1C400.8,413.9,400.8,421.3,405.7,426.2z"/>
	<path class="st0" d="M484.7,393.3l-46.1,46.1l17.2,17.2l-99.1,90.8c-4.4,3.9-6.9,9.3-6.9,15.2c0,5.9,2,11.3,5.9,15.2
		c3.9,3.9,9.3,6.4,14.7,6.4h0.5c5.9,0,11.3-2.9,15.2-6.9l92.3-98.2l17.2,17.2l46.1-46.1L484.7,393.3z"/>
</g>
</svg>
