<svg width="112" height="88" viewBox="0 0 112 88" fill="none" xmlns="http://www.w3.org/2000/svg">
<rect width="112" height="88" rx="12" fill="white"/>
<g clip-path="url(#clip0_1101:10421)">
<path d="M82.8504 44.115L80.9381 39.7548C80.8234 39.4999 80.6959 39.2449 80.5684 38.9899C79.7652 37.5238 78.452 36.4274 76.8712 35.8919C75.2903 35.3564 73.5819 35.4329 72.052 36.0959L71.3126 36.4146L70.3692 34.2728L69.668 32.6919C69.0688 31.3405 67.9851 30.3078 66.6082 29.7724C65.2313 29.2497 63.7397 29.2879 62.401 29.8744L59.9532 30.9325C59.4943 30.2823 58.9461 29.7979 58.3086 29.4664C56.97 28.778 55.3508 28.8289 53.515 29.6449L51.7556 30.4098L49.4863 25.2465C48.5684 23.1429 46.8473 21.7023 44.7819 21.2943C42.8441 20.9118 40.8552 21.46 39.4911 22.7604C37.4385 24.7238 36.8393 27.6688 37.9867 30.2696L46.5923 49.954C45.8783 49.8138 45.1134 49.7373 44.3485 49.7628C42.3469 49.8138 40.5492 50.4513 39.3508 51.5222C39.2743 51.5732 39.1979 51.6369 39.1341 51.7007C37.923 52.9501 37.3238 54.4544 37.413 56.0608C37.515 58.0624 38.6624 60.0513 40.7277 61.7851C40.7405 61.7979 40.7532 61.7979 40.7532 61.8106L58.4361 75.7198C58.6656 75.8983 58.9461 75.9875 59.2265 75.9875C59.405 75.9875 59.5708 75.9493 59.7365 75.8855L85.0688 64.7556C85.5022 64.5644 85.7955 64.1437 85.8337 63.672L85.9739 61.4664C86.3054 55.5381 85.2473 49.5461 82.8504 44.115ZM83.3986 61.3007L83.3094 62.7285L59.3923 73.2465L42.3214 59.8218C40.8425 58.5724 39.9883 57.1955 39.9245 55.9333C39.8863 55.1174 40.1668 54.3525 40.7532 53.6768C40.7915 53.6385 40.8425 53.6003 40.8807 53.562C42.4106 51.9939 46.2098 51.8791 48.1987 53.3453L52.5843 57.5652C52.8265 57.8074 53.1453 57.9222 53.464 57.9222C53.7955 57.9222 54.1269 57.7947 54.3819 57.527C54.8664 57.017 54.8536 56.2138 54.3437 55.7293L50.0728 51.6242L40.3198 29.2369C39.4656 27.2863 40.2433 25.5652 41.2504 24.5963C42.0154 23.8696 43.1755 23.5636 44.2847 23.7803C45.5469 24.0353 46.5668 24.915 47.1532 26.2664L54.5604 43.1078C54.7644 43.5795 55.2361 43.8728 55.7333 43.8728C55.899 43.8728 56.0775 43.8345 56.2433 43.7708C56.8935 43.4903 57.1867 42.7381 56.8935 42.0879L52.7883 32.7556L54.5477 31.9907C55.6441 31.5062 56.5238 31.4297 57.1485 31.7485C57.5947 31.978 57.9644 32.4242 58.2576 33.0871L62.6178 43.0186C62.8218 43.4903 63.2935 43.7835 63.7907 43.7835C63.9564 43.7835 64.1349 43.7453 64.3006 43.6815C64.9508 43.4011 65.2441 42.6489 64.9508 41.9987L61.1006 33.2401L63.4337 32.2329C63.4337 32.2329 63.4465 32.2329 63.4465 32.2202C64.1604 31.9015 64.9636 31.876 65.703 32.1564C66.4425 32.4369 67.0289 32.9979 67.3477 33.7246L72.5365 45.5301C72.7405 46.0019 73.2122 46.2951 73.7094 46.2951C73.8751 46.2951 74.0536 46.2568 74.2194 46.1931C74.8696 45.9126 75.1628 45.1604 74.8696 44.5102L72.3453 38.7732L73.072 38.4544C75.0481 37.6003 77.3046 38.3652 78.3245 40.2393C78.4265 40.4178 78.5158 40.609 78.605 40.8003L80.5174 45.1604C82.7484 50.1963 83.7429 55.7931 83.3986 61.3007Z" fill="#0276DD"/>
<path d="M77.966 59.0938L77.7748 59.1703C77.7365 59.183 77.6855 59.1958 77.6473 59.2213L76.8569 59.5655L76.7039 59.6292C76.7039 59.6292 76.6911 59.6292 76.6911 59.642L59.4545 67.2277C58.8043 67.5081 58.511 68.2603 58.8043 68.9105C59.0083 69.395 59.48 69.6755 59.9772 69.6755C60.1429 69.6755 60.3214 69.6372 60.4871 69.5735L77.8895 61.9113L78.9987 61.4268C79.6489 61.1464 79.9421 60.3942 79.6489 59.744C79.3557 59.1065 78.6035 58.8133 77.966 59.0938Z" fill="#0276DD"/>
<path d="M40.1925 17.7628C40.32 18.362 40.8427 18.7827 41.4419 18.7827C41.5311 18.7827 41.6204 18.77 41.6969 18.7572C42.3853 18.617 42.8315 17.9413 42.6913 17.2529L41.8244 13.0202C41.6841 12.3317 41.0084 11.8855 40.32 12.0258C39.6316 12.166 39.1853 12.8417 39.3256 13.5302L40.1925 17.7628Z" fill="#0276DD"/>
<path d="M35.1293 23.1922C35.55 23.1922 35.9453 22.9882 36.2002 22.6185C36.5827 22.032 36.4297 21.2416 35.8305 20.8591L28.6911 16.1293C28.6528 16.1038 28.6146 16.0783 28.5763 16.0655L27.9389 15.6703C27.3397 15.3133 26.5492 15.4918 26.1795 16.091C25.8098 16.6902 25.9883 17.4806 26.5875 17.8504L27.4672 18.3986C27.5054 18.4241 27.5564 18.4496 27.5947 18.4623L34.4281 22.9882C34.6449 23.1285 34.8871 23.1922 35.1293 23.1922Z" fill="#0276DD"/>
<path d="M35.0385 29.2751C34.8983 28.5866 34.2226 28.1404 33.5341 28.2807L29.3014 29.1603C28.613 29.3006 28.1668 29.9763 28.307 30.6647C28.4345 31.2639 28.9572 31.6846 29.5564 31.6846C29.6457 31.6846 29.7349 31.6719 29.8114 31.6591L34.0441 30.7794C34.7453 30.6392 35.1787 29.9635 35.0385 29.2751Z" fill="#0276DD"/>
<path d="M38.2539 35.842C37.6674 35.4595 36.877 35.6125 36.4945 36.2117L34.1232 39.8197C33.7407 40.4061 33.8937 41.1965 34.4929 41.5918C34.7097 41.732 34.9519 41.7958 35.1941 41.7958C35.6148 41.7958 36.0101 41.5918 36.265 41.222L38.6364 37.6141C39.0061 37.0149 38.8403 36.2244 38.2539 35.842Z" fill="#0276DD"/>
<path d="M52.2254 25.4135C52.3529 26.0127 52.8756 26.4334 53.4748 26.4334C53.564 26.4334 53.6533 26.4206 53.7298 26.4079L56.5473 25.8214C57.2357 25.6812 57.6819 25.0055 57.5417 24.3171C57.4015 23.6286 56.7258 23.1824 56.0373 23.3226L53.2198 23.9091C52.5186 24.0493 52.0724 24.725 52.2254 25.4135Z" fill="#0276DD"/>
<path d="M48.3364 19.9043C48.5531 20.0445 48.7953 20.1083 49.0376 20.1083C49.4583 20.1083 49.8535 19.9043 50.1085 19.5345L52.4798 15.9266C52.8623 15.3401 52.7093 14.5497 52.1101 14.1545C51.5236 13.772 50.7332 13.925 50.338 14.5242L47.9666 18.1322C47.5842 18.7186 47.7499 19.509 48.3364 19.9043Z" fill="#0276DD"/>
</g>
<defs>
<clipPath id="clip0_1101:10421">
<rect width="64" height="64" fill="white" transform="translate(24 12)"/>
</clipPath>
</defs>
</svg>
