<?xml version="1.0" encoding="utf-8"?>
<!-- Generator: Adobe Illustrator 22.0.1, SVG Export Plug-In . SVG Version: 6.00 Build 0)  -->
<svg version="1.1" id="Capa_1" xmlns="http://www.w3.org/2000/svg" xmlns:xlink="http://www.w3.org/1999/xlink" x="0px" y="0px"
	 viewBox="0 0 512 512" style="enable-background:new 0 0 512 512;" xml:space="preserve">
<style type="text/css">
	.st0{fill:#0276DD;}
</style>
<g>
	<path class="st0" d="M316.6,142.2L222.8,236l-27.3-27.3c-3.2-3.2-8.5-3.2-11.7,0l-24.9,24.9c-3.2,3.2-3.2,8.5,0,11.7l58.1,58.1
		c3.2,3.2,8.5,3.2,11.7,0l124.5-124.5c3.2-3.3,3.2-8.5,0-11.8l-24.9-24.9C325.1,139,319.8,139,316.6,142.2z M222.8,285.8l-46.4-46.4
		l13.2-13.2l27.3,27.3c3.2,3.2,8.5,3.2,11.7,0l93.7-93.7l13.2,13.2L222.8,285.8z"/>
	<path class="st0" d="M503,448.1l-6.6-21.3c-0.1-0.4-0.3-0.8-0.5-1.3c-5-7.7-13.5-12.5-22.8-12.8l-105.6-16.2
		c-0.5-0.1-1-0.2-1.5-0.5l-77.3-42.2c-26-11.2-54.1-16.6-82.3-15.9c-56,0-70.4,9-76.6,12.8l-46.1,26.4c-2.6,1.5-5.5,2.3-8.4,2.2
		H48.8c-17,0-29,11.5-32.9,31.2L7.5,444c-1.4,7.8,0.8,15.9,6,21.8c6.7,8.1,16.6,12.8,27.1,13h25.7c4.6,22.4,26.6,36.9,49,32.3
		c16.2-3.3,28.9-16,32.3-32.3h209.1c4.6,22.4,26.6,36.9,49,32.3c16.2-3.3,28.9-16,32.3-32.3h45.2c12.1,0,21.9-9.8,21.9-21.9
		C505,454.1,504.3,451,503,448.1z M214.7,354.8c22.7,0.2,45.2,4.8,66.1,13.7l49.9,27.2c-29.6-0.5-71.9-1.5-116-3.7V354.8z
		 M138.6,364.9c4.2-2.7,15.2-9.5,59.5-10.2v36.4c-31.7-1.8-63.7-4.2-92.1-7.5L138.6,364.9z M106.9,495.7
		c-13.8,0-24.9-11.1-24.9-24.9s11.1-24.9,24.9-24.9c13.8,0,24.9,11.1,24.9,24.9S120.6,495.7,106.9,495.7z M397.2,495.7
		c-13.8,0-24.9-11.1-24.9-24.9s11.1-24.9,24.9-24.9s24.9,11.1,24.9,24.9S411,495.7,397.2,495.7z M487.6,460c-1,1.6-2.7,2.5-4.5,2.5
		h-45.2c-4.6-22.4-26.6-36.9-49-32.3c-16.2,3.3-28.9,16-32.3,32.3h-209c-4.6-22.4-26.6-36.9-49-32.3c-16.2,3.3-28.9,16-32.3,32.3
		H40.5c-5.5-0.2-10.7-2.7-14.2-6.9c-1.9-2.1-2.9-4.9-2.6-7.7l8.4-33.5c2.4-12.1,8.1-18.3,16.8-18.3h25.4
		c92.2,14.5,251.7,16.3,289.7,16.6c0.4,0.1,106.8,16.5,106.8,16.5c3.7,0.2,7.2,1.4,10.2,3.6l6.5,20.8c0.1,0.4,0.3,0.9,0.5,1.3
		C488.6,456.5,488.5,458.5,487.6,460z"/>
	<path class="st0" d="M402.8,195.3c0,0.2,0,0.5,0,0.7v57.2c0,44.5-14.5,87-40.3,121.7l14.5,7.9c27.1-37.2,42.2-82.4,42.2-129.6V196
		c0-0.3,0-0.5,0-0.7s0-0.5,0-0.7v-62.9c0-3.2-1.9-6.2-4.9-7.5l-155-69.1c-2.1-0.9-4.5-0.9-6.7,0l-155,69.1c-3,1.3-4.9,4.2-4.9,7.5
		v121.6c0,33.6,7.7,66.2,21.8,95.5l14.3-8.2c-12.6-26.9-19.6-56.7-19.6-87.4V137L256,71.5L402.8,137v57.6
		C402.8,194.9,402.8,195.1,402.8,195.3z"/>
	<path class="st0" d="M70.2,323.3c4.1,14.4,9.6,28.3,16.2,41.7l14.2-8.2c-15.6-31.7-24-67.1-24-103.6v-89.6v-47.8l179.4-80
		l179.4,79.9v137.5c0,49.5-15.5,97-43.3,136.4l18,2.8c14-21.2,24.7-44.5,31.8-69l4.2-16.4c3.8-17.4,5.7-35.3,5.8-53.5v-0.7v-16.4
		v-54.2v-16.4v-14.6v-40.7c0-3.2-1.9-6.2-4.9-7.5L259.3,19.4c-2.1-0.9-4.5-0.9-6.7,0L65.1,103c-3,1.3-4.9,4.2-4.9,7.5V162v1.6v2.1
		v16.4v54.2v16.4v0.5c0,18.3,2,36.2,5.8,53.7L70.2,323.3z"/>
</g>
</svg>
