<svg width="64" height="64" viewBox="0 0 64 64" fill="none" xmlns="http://www.w3.org/2000/svg">
<path d="M43.9483 16.2776C43.7414 16.2776 43.5428 16.1958 43.3959 16.05C43.2491 15.9043 43.1658 15.7064 43.1642 15.4994V11.5193C43.1547 11.411 43.1679 11.3019 43.2028 11.199C43.2378 11.096 43.2938 11.0015 43.3672 10.9213C43.4407 10.8412 43.53 10.7772 43.6295 10.7334C43.729 10.6896 43.8366 10.667 43.9453 10.667C44.054 10.667 44.1616 10.6896 44.2611 10.7334C44.3606 10.7772 44.45 10.8412 44.5234 10.9213C44.5969 11.0015 44.6528 11.096 44.6878 11.199C44.7228 11.3019 44.736 11.411 44.7265 11.5193V15.4994C44.7265 15.7058 44.6445 15.9037 44.4985 16.0497C44.3526 16.1956 44.1547 16.2776 43.9483 16.2776Z" fill="#0276DD"/>
<path d="M40.2385 16.8732L37.4108 14.0514C37.265 13.9046 37.1831 13.706 37.1831 13.499C37.1831 13.292 37.265 13.0934 37.4108 12.9465C37.4828 12.8729 37.5687 12.8144 37.6635 12.7744C37.7584 12.7344 37.8604 12.7139 37.9633 12.7139C38.0663 12.7139 38.1681 12.7344 38.263 12.7744C38.3579 12.8144 38.4438 12.8729 38.5157 12.9465L41.3256 15.7563C41.4007 15.8274 41.4606 15.9131 41.5015 16.008C41.5424 16.103 41.5635 16.2054 41.5635 16.3088C41.5635 16.4122 41.5424 16.5146 41.5015 16.6096C41.4606 16.7046 41.4007 16.7902 41.3256 16.8613C41.2564 16.9359 41.1728 16.9957 41.0798 17.0369C40.9868 17.0782 40.8863 17.1 40.7846 17.1011C40.6828 17.1023 40.5819 17.0826 40.488 17.0434C40.3941 17.0042 40.3092 16.9463 40.2385 16.8732Z" fill="#0276DD"/>
<path d="M47.6525 16.8713C47.581 16.9456 47.4952 17.0048 47.4003 17.0453C47.3054 17.0857 47.2033 17.1065 47.1001 17.1065C46.9969 17.1065 46.8947 17.0857 46.7998 17.0453C46.7049 17.0048 46.6191 16.9456 46.5476 16.8713C46.4747 16.7989 46.4168 16.7129 46.3773 16.618C46.3378 16.5232 46.3174 16.4215 46.3174 16.3188C46.3174 16.2161 46.3378 16.1144 46.3773 16.0196C46.4168 15.9248 46.4747 15.8387 46.5476 15.7663L49.3634 12.9565C49.4351 12.8832 49.5206 12.8247 49.615 12.7844C49.7094 12.7441 49.8108 12.7228 49.9134 12.7217C50.016 12.7206 50.1178 12.7398 50.213 12.778C50.3082 12.8162 50.3949 12.8729 50.4683 12.9446C50.5416 13.0164 50.6001 13.1019 50.6404 13.1963C50.6806 13.2907 50.702 13.392 50.7031 13.4946C50.7042 13.5972 50.6851 13.699 50.6468 13.7943C50.6086 13.8895 50.5519 13.9762 50.4802 14.0496L47.6525 16.8713Z" fill="#0276DD"/>
<path d="M16.5489 26.653H19.7508V23.451C19.7508 23.2447 19.8328 23.0467 19.9787 22.9008C20.1246 22.7548 20.3225 22.6729 20.5289 22.6729H24.5091C24.7155 22.6729 24.9134 22.7548 25.0593 22.9008C25.2053 23.0467 25.2872 23.2447 25.2872 23.451V26.653H28.501C28.7074 26.653 28.9053 26.7349 29.0513 26.8809C29.1972 27.0268 29.2793 27.2248 29.2793 27.4312V31.4113C29.2801 31.514 29.2605 31.6158 29.2217 31.7109C29.1829 31.806 29.1257 31.8925 29.0534 31.9654C28.981 32.0383 28.895 32.0961 28.8002 32.1356C28.7054 32.1751 28.6037 32.1954 28.501 32.1954H25.2991V35.3913C25.2999 35.494 25.2804 35.5959 25.2416 35.691C25.2029 35.7861 25.1457 35.8726 25.0733 35.9455C25.001 36.0184 24.9149 36.0762 24.8201 36.1157C24.7253 36.1552 24.6237 36.1755 24.521 36.1755H20.5408C20.3339 36.1739 20.136 36.0906 19.9902 35.9437C19.8445 35.7968 19.7627 35.5983 19.7627 35.3913V32.1954H16.5608C16.3538 32.1938 16.1559 32.1105 16.0101 31.9636C15.8643 31.8167 15.7825 31.6182 15.7825 31.4113V27.4312C15.7825 27.2268 15.8629 27.0306 16.0062 26.885C16.1496 26.7394 16.3445 26.6561 16.5489 26.653ZM17.333 30.6331H20.5289C20.7359 30.6331 20.9345 30.7148 21.0814 30.8606C21.2282 31.0064 21.3116 31.2043 21.3131 31.4113V34.6131H23.7487V31.4113C23.7487 31.2049 23.8307 31.0069 23.9766 30.861C24.1225 30.715 24.3205 30.6331 24.5269 30.6331H27.7288V28.2153H24.5269C24.4242 28.2153 24.3225 28.195 24.2277 28.1555C24.1329 28.116 24.0468 28.0582 23.9745 27.9853C23.9022 27.9124 23.8449 27.8259 23.8062 27.7308C23.7674 27.6357 23.7479 27.5338 23.7487 27.4312V24.2352H21.331V27.4312C21.331 27.6391 21.2483 27.8386 21.1012 27.9856C20.9542 28.1327 20.7547 28.2153 20.5468 28.2153H17.3508L17.333 30.6331Z" fill="#0276DD"/>
<path d="M16.1048 44.0781C16.6102 44.0781 17.1044 44.2281 17.5245 44.509C17.9447 44.79 18.2721 45.1893 18.4653 45.6564C18.6584 46.1235 18.7087 46.6374 18.6097 47.133C18.5106 47.6287 18.2667 48.0839 17.9089 48.4409C17.551 48.7979 17.0954 49.0407 16.5995 49.1386C16.1036 49.2365 15.5898 49.185 15.1231 48.9908C14.6565 48.7965 14.2579 48.4682 13.978 48.0473C13.698 47.6265 13.5492 47.132 13.5504 46.6266C13.5519 45.9501 13.8218 45.302 14.3007 44.8242C14.7795 44.3464 15.4283 44.0781 16.1048 44.0781ZM16.1048 47.6424C16.301 47.6424 16.4928 47.5842 16.656 47.4752C16.8191 47.3662 16.9462 47.2113 17.0213 47.03C17.0964 46.8487 17.1161 46.6492 17.0778 46.4568C17.0395 46.2644 16.945 46.0876 16.8063 45.9489C16.6675 45.8101 16.4908 45.7156 16.2983 45.6774C16.1059 45.6391 15.9064 45.6587 15.7252 45.7338C15.5439 45.8089 15.3889 45.9361 15.2799 46.0992C15.1709 46.2623 15.1127 46.4541 15.1127 46.6503C15.1189 46.9093 15.2262 47.1556 15.4115 47.3365C15.5969 47.5175 15.8457 47.6187 16.1048 47.6186V47.6424Z" fill="#0276DD"/>
<path d="M7.70984 18.6953H36.4259C37.0438 18.7045 37.6338 18.954 38.0708 19.391C38.5077 19.828 38.7573 20.418 38.7665 21.0358V22.6754H41.1842V21.4873C41.2172 20.7745 41.5236 20.1019 42.0397 19.6091C42.5558 19.1164 43.2419 18.8415 43.9555 18.8415C44.669 18.8415 45.3551 19.1164 45.8712 19.6091C46.3873 20.1019 46.6937 20.7745 46.7267 21.4873V22.6754H47.8138C48.5942 22.6738 49.357 22.9069 50.0032 23.3444C50.6494 23.7819 51.1491 24.4036 51.4374 25.1288L54.574 32.9643L58.4353 36.8315C58.5085 36.9037 58.5667 36.9897 58.6064 37.0845C58.6462 37.1794 58.6668 37.2811 58.667 37.3839V47.3164C58.667 47.4191 58.6466 47.5207 58.6072 47.6156C58.5677 47.7104 58.5099 47.7964 58.437 47.8688C58.3641 47.9411 58.2775 47.9983 58.1824 48.037C58.0873 48.0758 57.9855 48.0954 57.8828 48.0946H53.1958C52.8727 49.2409 52.184 50.2503 51.2345 50.9692C50.2849 51.6881 49.1265 52.0772 47.9355 52.0772C46.7446 52.0772 45.5861 51.6881 44.6366 50.9692C43.6871 50.2503 42.9984 49.2409 42.6753 48.0946H21.3729C21.0498 49.2409 20.3611 50.2503 19.4115 50.9692C18.462 51.6881 17.3036 52.0772 16.1126 52.0772C14.9216 52.0772 13.7632 51.6881 12.8137 50.9692C11.8641 50.2503 11.1754 49.2409 10.8524 48.0946H6.1475C6.04234 48.0994 5.93729 48.0828 5.83873 48.0459C5.74016 48.0089 5.65013 47.9524 5.57405 47.8796C5.49797 47.8069 5.43741 47.7195 5.3961 47.6226C5.35478 47.5258 5.33355 47.4216 5.33366 47.3164V21.0358C5.34302 20.4118 5.59752 19.8166 6.04213 19.3786C6.48674 18.9407 7.08576 18.6952 7.70984 18.6953ZM45.1346 21.4636C45.1346 21.1429 45.0073 20.8355 44.7805 20.6088C44.5538 20.382 44.2464 20.2547 43.9257 20.2547C43.6051 20.2547 43.2976 20.382 43.0709 20.6088C42.8442 20.8355 42.7169 21.1429 42.7169 21.4636V22.6517H45.1346V21.4636ZM49.9583 25.711C49.7855 25.2757 49.4857 24.9024 49.098 24.6396C48.7102 24.3769 48.2524 24.2369 47.7841 24.2377H42.7585V30.2792C42.7585 31.794 44.1366 32.5662 45.4198 32.6256H52.7384L49.9583 25.711ZM53.3681 46.556H57.0749V44.1382H52.7681C53.1596 44.885 53.3712 45.713 53.3859 46.556H53.3681ZM47.9089 50.5302C48.6805 50.529 49.4345 50.2991 50.0755 49.8695C50.7166 49.44 51.2159 48.83 51.5104 48.1167C51.8049 47.4035 51.8813 46.6189 51.73 45.8622C51.5788 45.1055 51.2066 44.4107 50.6605 43.8654C50.1145 43.3202 49.4191 42.9491 48.6621 42.799C47.9052 42.6489 47.1207 42.7265 46.4079 43.0221C45.6951 43.3176 45.0859 43.8179 44.6573 44.4596C44.2288 45.1013 44 45.8556 44 46.6273C44 47.1418 44.1017 47.6513 44.2993 48.1263C44.497 48.6014 44.7866 49.0327 45.1515 49.3955C45.5165 49.7582 45.9495 50.0452 46.4258 50.2399C46.902 50.4346 47.4121 50.5333 47.9266 50.5302H47.9089ZM42.4436 46.556C42.451 45.7149 42.6544 44.887 43.0376 44.1382H38.7308V46.556H42.4436ZM38.7368 42.5759H44.2495C45.251 41.6659 46.5557 41.1617 47.9089 41.1617C49.262 41.1617 50.5666 41.6659 51.5681 42.5759H57.0749V40.1878H38.7368V42.5759ZM38.7368 38.5958H57.0749V37.7107L53.5523 34.188H45.4673H45.4257H45.3782C44.8433 34.2127 44.3088 34.1307 43.8058 33.9469C43.3028 33.7632 42.8413 33.4812 42.4483 33.1175C42.0553 32.7538 41.7385 32.3155 41.5164 31.8282C41.2943 31.341 41.1713 30.8144 41.1546 30.2792V24.2377H38.7368V38.5958ZM21.5452 46.556H37.1744V44.1382H20.9452C21.3366 44.885 21.5481 45.713 21.5629 46.556H21.5452ZM16.0858 50.5302C16.8575 50.529 17.6115 50.2991 18.2525 49.8695C18.8936 49.44 19.3929 48.83 19.6874 48.1167C19.9819 47.4035 20.0584 46.6189 19.9071 45.8622C19.7558 45.1055 19.3836 44.4107 18.8376 43.8654C18.2915 43.3202 17.5961 42.9491 16.8391 42.799C16.0822 42.6489 15.2978 42.7265 14.585 43.0221C13.8722 43.3176 13.263 43.8179 12.8344 44.4596C12.4058 45.1013 12.1771 45.8556 12.1771 46.6273C12.1771 47.1418 12.2788 47.6513 12.4764 48.1263C12.674 48.6014 12.9636 49.0327 13.3285 49.3955C13.6935 49.7582 14.1266 50.0452 14.6028 50.2399C15.0791 50.4346 15.5892 50.5333 16.1037 50.5302H16.0858ZM6.90195 46.556H10.6207C10.6281 45.7149 10.8315 44.887 11.2147 44.1382H6.896L6.90195 46.556ZM6.90195 42.5759H12.4622C13.4637 41.6659 14.7683 41.1617 16.1215 41.1617C17.4747 41.1617 18.7793 41.6659 19.7808 42.5759H37.2101V40.1878H6.91384L6.90195 42.5759ZM6.90195 38.5958H37.1982V21.0358C37.1982 20.8295 37.1162 20.6315 36.9703 20.4856C36.8244 20.3396 36.6264 20.2577 36.42 20.2577H7.70984C7.50344 20.2577 7.30553 20.3396 7.15959 20.4856C7.01365 20.6315 6.9316 20.8295 6.9316 21.0358L6.90195 38.5958Z" fill="#0276DD"/>
<path d="M47.9251 44.0781C48.4305 44.0781 48.9247 44.2281 49.3449 44.509C49.7651 44.79 50.0924 45.1893 50.2856 45.6564C50.4788 46.1235 50.529 46.6374 50.43 47.133C50.3309 47.6287 50.0871 48.0839 49.7293 48.4409C49.3714 48.7979 48.9157 49.0407 48.4198 49.1386C47.9239 49.2365 47.4101 49.185 46.9434 48.9908C46.4768 48.7965 46.0783 48.4682 45.7984 48.0473C45.5184 47.6265 45.3696 47.132 45.3707 46.6266C45.3723 45.9501 45.6421 45.302 46.121 44.8242C46.5999 44.3464 47.2486 44.0781 47.9251 44.0781ZM47.9251 47.6424C48.1213 47.6424 48.3131 47.5842 48.4763 47.4752C48.6394 47.3662 48.7666 47.2113 48.8417 47.03C48.9168 46.8487 48.9364 46.6492 48.8981 46.4568C48.8598 46.2644 48.7653 46.0876 48.6266 45.9489C48.4879 45.8101 48.3111 45.7156 48.1186 45.6774C47.9262 45.6391 47.7267 45.6587 47.5455 45.7338C47.3642 45.8089 47.2092 45.9361 47.1002 46.0992C46.9912 46.2623 46.9331 46.4541 46.9331 46.6503C46.9393 46.9093 47.0465 47.1556 47.2319 47.3365C47.4173 47.5175 47.666 47.6187 47.9251 47.6186V47.6424Z" fill="#0276DD"/>
</svg>
