<svg width="65" height="64" viewBox="0 0 65 64" fill="none" xmlns="http://www.w3.org/2000/svg">
<path d="M22.5298 40.8765C22.5288 40.1504 22.4366 39.4274 22.2553 38.7244L24.1267 37.5891V43.4465C24.1283 44.5197 24.5554 45.5484 25.3143 46.3073C26.0731 47.0662 27.1019 47.4932 28.1751 47.4949H40.6509C40.7876 47.4889 40.9204 47.4471 41.0358 47.3736C41.1512 47.3001 41.2453 47.1975 41.3085 47.0761C41.3717 46.9547 41.4019 46.8188 41.3959 46.6821C41.39 46.5454 41.3482 46.4126 41.2747 46.2972C40.2828 44.7295 39.7562 42.9125 39.7562 41.0574C39.7562 39.2022 40.2828 37.3852 41.2747 35.8175L42.4599 36.8904C41.7657 38.2173 41.4299 39.7024 41.4857 41.1989C41.5415 42.6954 41.9871 44.1514 42.7782 45.4228C43.5694 46.6943 44.6788 47.7372 45.9966 48.4484C47.3145 49.1596 48.7952 49.5144 50.2923 49.4777C51.7893 49.4411 53.2509 49.0143 54.5324 48.2395C55.8139 47.4647 56.871 46.3688 57.599 45.0601C58.327 43.7515 58.7008 42.2755 58.6833 40.7781C58.6659 39.2807 58.2578 37.8137 57.4995 36.5224C57.4677 36.4799 57.4323 36.4402 57.3935 36.4039C56.9387 35.6481 56.3683 34.9683 55.703 34.389C55.6906 34.3668 55.6759 34.3459 55.6593 34.3267C54.298 33.1684 52.6099 32.4626 50.8293 32.3072C49.0486 32.1518 47.2637 32.5546 45.7223 33.4596L44.7617 32.5489C46.2328 31.7106 47.8967 31.2699 49.5899 31.2701C50.1101 31.2711 50.6294 31.3128 51.1431 31.3948C51.254 31.4121 51.3673 31.4049 51.4751 31.3737C51.5829 31.3424 51.6825 31.2879 51.7669 31.2139L54.2621 29.0806C54.6518 28.7433 54.9518 28.3146 55.1354 27.833C55.7966 26.1425 55.8278 22.9425 54.5739 21.5077C51.1244 17.5779 46.0156 15.6379 40.1769 16.0558C39.8476 16.0806 39.53 16.1891 39.2543 16.3709C38.9786 16.5528 38.7539 16.802 38.6015 17.095C38.4491 17.3879 38.374 17.715 38.3833 18.0451C38.3926 18.3752 38.4861 18.6975 38.6548 18.9814L38.9979 19.5615H37.3698C37.163 19.5615 36.9647 19.6437 36.8184 19.7899C36.6722 19.9361 36.5901 20.1345 36.5901 20.3413C36.5901 20.5481 36.6722 20.7464 36.8184 20.8926C36.9647 21.0388 37.163 21.121 37.3698 21.121H39.865C40.2254 21.9173 40.3962 22.7864 40.364 23.6598C39.4537 22.855 38.3841 22.2509 37.2249 21.8869C36.0656 21.5229 34.8427 21.4072 33.6357 21.5472C32.4288 21.6873 31.2648 22.08 30.2197 22.6998C29.1746 23.3196 28.2718 24.1526 27.57 25.1445H21.9559C21.5034 25.1524 21.0622 25.0024 20.7083 24.7203L14.9882 20.1229C14.8508 20.0106 14.679 19.949 14.5016 19.9483H9.82317C9.32607 19.9508 8.84249 20.1103 8.4415 20.4041C8.04051 20.6979 7.74262 21.111 7.59041 21.5842C7.4382 22.0574 7.43946 22.5666 7.59399 23.0391C7.74851 23.5116 8.0484 23.9232 8.45082 24.215L13.4412 27.7893H13.4911L21.5629 33.6093L19.8787 34.6448C18.443 33.2803 16.5805 32.4531 14.6055 32.3028C12.6306 32.1524 10.6643 32.6882 9.03867 33.8197C7.41302 34.9511 6.22762 36.6089 5.68264 38.5131C5.13765 40.4173 5.26647 42.4512 6.04734 44.2714C6.82821 46.0916 8.21328 47.5866 9.96869 48.5039C11.7241 49.4212 13.7423 49.7047 15.6825 49.3064C17.6227 48.9081 19.3659 47.8525 20.618 46.3178C21.87 44.7831 22.5542 42.8633 22.5548 40.8827L22.5298 40.8765ZM50.0826 33.8401C51.5047 33.8454 52.8919 34.2802 54.0624 35.0877C55.0346 35.7694 55.8214 36.6827 56.3518 37.745V37.745C56.8452 38.7111 57.1058 39.7792 57.1128 40.864C57.1134 41.912 56.8798 42.9469 56.4293 43.8931C55.9787 44.8394 55.3224 45.673 54.5084 46.3331C53.6944 46.9932 52.7432 47.4631 51.7243 47.7086C50.7054 47.954 49.6446 47.9688 48.6193 47.7517C47.594 47.5347 46.6301 47.0914 45.7981 46.4542C44.966 45.8169 44.2869 45.0019 43.8102 44.0686C43.3334 43.1352 43.0712 42.1072 43.0427 41.0596C43.0141 40.0119 43.22 38.9712 43.6451 38.0133L45.7223 39.9907C45.6621 40.2778 45.6329 40.5706 45.635 40.864C45.635 41.7424 45.8955 42.6011 46.3835 43.3315C46.8716 44.0619 47.5652 44.6311 48.3768 44.9673C49.1883 45.3035 50.0814 45.3914 50.9429 45.22C51.8045 45.0487 52.5958 44.6257 53.217 44.0045C53.8381 43.3834 54.2611 42.592 54.4325 41.7305C54.6038 40.8689 54.5159 39.9759 54.1797 39.1643C53.8436 38.3528 53.2743 37.6591 52.5439 37.1711C51.8135 36.6831 50.9549 36.4226 50.0764 36.4226C49.7082 36.4213 49.3413 36.4674 48.9848 36.5598L46.9076 34.5824C47.8932 34.0898 48.9808 33.8355 50.0826 33.8401V33.8401ZM45.0923 35.0191L50.6378 40.2963C50.7925 40.4436 50.8824 40.6462 50.8877 40.8597C50.8929 41.0732 50.8132 41.2801 50.6659 41.4348C50.5187 41.5894 50.316 41.6793 50.1025 41.6846C49.889 41.6898 49.6822 41.6101 49.5275 41.4628L43.982 36.1918L42.2853 34.5699C42.643 34.1685 43.0332 33.7971 43.4518 33.4596L45.0923 35.0191ZM53.6258 27.3652C53.1014 27.2812 52.6241 27.0131 52.2795 26.609C51.9349 26.2049 51.7456 25.6911 51.7456 25.1601C51.7456 24.629 51.9349 24.1152 52.2795 23.7111C52.6241 23.307 53.1014 23.0389 53.6258 22.9549C54.131 24.3816 54.131 25.9385 53.6258 27.3652V27.3652ZM41.5492 21.1272L40.8007 19.5678L39.9773 18.1767C39.944 18.1219 39.9253 18.0594 39.9231 17.9953C39.9209 17.9312 39.9351 17.8676 39.9646 17.8106C39.994 17.7536 40.0376 17.7052 40.0912 17.6699C40.1447 17.6346 40.2064 17.6136 40.2704 17.6091C45.1422 17.2597 49.4402 18.6882 52.5217 21.645C51.8431 21.9304 51.2622 22.4071 50.8499 23.017C50.4376 23.6269 50.2117 24.3436 50.1998 25.0797C50.1879 25.8158 50.3904 26.5395 50.7828 27.1624C51.1752 27.7853 51.7404 28.2806 52.4094 28.5878L51.0246 29.7854C50.5484 29.7286 50.0694 29.6994 49.5899 29.6981C47.6742 29.6969 45.7894 30.1806 44.1111 31.1044C42.4329 32.0281 41.0158 33.3617 39.992 34.9808C38.9682 36.6 38.371 38.4519 38.2561 40.3642C38.1412 42.2764 38.5122 44.1866 39.3347 45.9167H28.1564C27.4946 45.9167 26.86 45.6538 26.3921 45.1859C25.9241 44.7179 25.6612 44.0833 25.6612 43.4215V36.2666C25.6625 35.4953 25.9371 34.7494 26.4361 34.1613C26.9351 33.5732 27.6264 33.181 28.3872 33.0541C29.7783 32.8233 32.9035 33.6779 36.3905 31.1828C38.8856 29.4174 41.0876 28.2884 41.78 24.976C42.0447 23.6957 41.9563 22.3675 41.5242 21.1335L41.5492 21.1272ZM34.6625 23.0672C35.6793 23.0634 36.6849 23.2801 37.6099 23.7022C38.5349 24.1243 39.3575 24.742 40.0209 25.5125C39.4609 26.8214 38.4941 27.9151 37.2637 28.6315L30.7389 26.1363L29.2543 25.5686C29.9187 24.7824 30.7471 24.1511 31.6814 23.7189C32.6157 23.2868 33.6332 23.0644 34.6625 23.0672V23.0672ZM13.1917 25.6622H13.1542L9.41149 22.9487C9.31235 22.8774 9.23132 22.7838 9.17498 22.6755C9.11863 22.5671 9.08854 22.447 9.0871 22.3249C9.08628 22.2212 9.106 22.1183 9.14513 22.0222C9.18426 21.9261 9.24202 21.8387 9.31508 21.7651C9.38815 21.6915 9.47509 21.633 9.57086 21.5931C9.66663 21.5532 9.76934 21.5327 9.87309 21.5327H14.2396L19.7477 25.9554C20.3706 26.4549 21.1449 26.7277 21.9434 26.7289H27.8632L32.9222 28.6626L35.7043 29.7293C34.2479 30.8431 32.4662 31.4479 30.6328 31.451H28.9237C28.0601 31.4512 27.2124 31.6828 26.4686 32.1216C25.7249 32.5604 25.1122 33.1904 24.6944 33.9461L23.4343 33.0229L13.1917 25.6622ZM20.1282 36.2666L22.9103 34.5512L24.1579 35.4495C24.1579 35.5243 24.1579 35.6054 24.1579 35.6928L17.1964 40.0094L14.8572 41.4504C14.6743 41.5603 14.4553 41.5932 14.2483 41.5417C14.0413 41.4902 13.8631 41.3586 13.753 41.1759C13.6955 41.0838 13.6581 40.9807 13.643 40.8733C13.628 40.7658 13.6357 40.6564 13.6657 40.5521C13.7213 40.3502 13.8533 40.1779 14.0338 40.0718L16.4853 38.5622L20.1282 36.2666ZM6.89759 40.8328C6.90783 39.4995 7.29704 38.1966 8.0198 37.0761C8.74255 35.9556 9.76907 35.0638 10.9795 34.5046C12.19 33.9455 13.5345 33.7422 14.8562 33.9183C16.1779 34.0944 17.4222 34.6428 18.444 35.4994L16.0424 36.9778C15.1962 36.5152 14.2225 36.3403 13.2682 36.4793C12.3139 36.6183 11.4306 37.0637 10.7515 37.7484C10.0723 38.4331 9.63414 39.32 9.50294 40.2754C9.37173 41.2308 9.55462 42.203 10.024 43.0454C10.4935 43.8878 11.224 44.5548 12.1055 44.9459C12.987 45.337 13.9718 45.431 14.9114 45.2137C15.851 44.9964 16.6945 44.4796 17.3148 43.7412C17.9351 43.0028 18.2985 42.0827 18.3504 41.1197L20.8456 39.5914C20.9274 40.0149 20.9692 40.4452 20.9703 40.8765C20.9703 42.7426 20.229 44.5323 18.9094 45.8519C17.5898 47.1715 15.8001 47.9128 13.934 47.9128C12.0678 47.9128 10.2781 47.1715 8.95849 45.8519C7.63892 44.5323 6.89759 42.7426 6.89759 40.8765V40.8328Z" fill="#0276DD"/>
<path d="M32.0065 41.5685H29.7671C29.6584 41.5588 29.5489 41.5719 29.4455 41.6068C29.3422 41.6417 29.2472 41.6978 29.1667 41.7714C29.0862 41.8451 29.0219 41.9347 28.9779 42.0345C28.9339 42.1344 28.9111 42.2423 28.9111 42.3514C28.9111 42.4605 28.9339 42.5684 28.9779 42.6683C29.0219 42.7681 29.0862 42.8577 29.1667 42.9314C29.2472 43.005 29.3422 43.0611 29.4455 43.096C29.5489 43.131 29.6584 43.144 29.7671 43.1343H32.0065C32.1152 43.144 32.2247 43.131 32.328 43.096C32.4314 43.0611 32.5264 43.005 32.6069 42.9314C32.6874 42.8577 32.7517 42.7681 32.7957 42.6683C32.8397 42.5684 32.8624 42.4605 32.8624 42.3514C32.8624 42.2423 32.8397 42.1344 32.7957 42.0345C32.7517 41.9347 32.6874 41.8451 32.6069 41.7714C32.5264 41.6978 32.4314 41.6417 32.328 41.6068C32.2247 41.5719 32.1152 41.5588 32.0065 41.5685Z" fill="#0276DD"/>
</svg>
