<svg width="64" height="64" viewBox="0 0 64 64" fill="none" xmlns="http://www.w3.org/2000/svg">
<path d="M49.0873 36.7051C48.3356 36.7039 47.6004 36.9258 46.9749 37.3426C46.3494 37.7595 45.8617 38.3526 45.5735 39.0468C45.2852 39.741 45.2095 40.5052 45.3559 41.2425C45.5022 41.9798 45.8641 42.6571 46.3956 43.1886C46.9271 43.7201 47.6044 44.0819 48.3417 44.2283C49.079 44.3746 49.8431 44.2989 50.5374 44.0107C51.2316 43.7225 51.8247 43.2347 52.2416 42.6092C52.6584 41.9837 52.8803 41.2486 52.8791 40.4969C52.8775 39.4918 52.4774 38.5282 51.7667 37.8175C51.0559 37.1067 50.0924 36.7067 49.0873 36.7051ZM49.0873 42.5791C48.6752 42.5803 48.272 42.4592 47.9288 42.2311C47.5856 42.0031 47.3178 41.6783 47.1593 41.298C47.0007 40.9176 46.9586 40.4988 47.0382 40.0945C47.1179 39.6902 47.3157 39.3186 47.6067 39.0268C47.8976 38.735 48.2686 38.5361 48.6727 38.4552C49.0767 38.3744 49.4957 38.4153 49.8765 38.5727C50.2573 38.7301 50.5829 38.997 50.812 39.3395C51.041 39.682 51.1633 40.0848 51.1633 40.4969C51.1633 41.0481 50.9448 41.5768 50.5556 41.9671C50.1665 42.3574 49.6384 42.5775 49.0873 42.5791Z" fill="#0276DD"/>
<path d="M12.4806 36.7051C11.7291 36.7051 10.9946 36.928 10.3699 37.3456C9.74521 37.7632 9.2584 38.3567 8.97112 39.051C8.68385 39.7454 8.60901 40.5093 8.75605 41.2462C8.90309 41.9831 9.26541 42.6598 9.79717 43.1907C10.3289 43.7216 11.0062 44.0829 11.7434 44.2287C12.4805 44.3746 13.2443 44.2985 13.9382 44.0101C14.6321 43.7217 15.2248 43.234 15.6414 42.6086C16.058 41.9832 16.2797 41.2483 16.2785 40.4969C16.2769 39.4907 15.876 38.5262 15.1639 37.8153C14.4519 37.1044 13.4868 36.7051 12.4806 36.7051ZM12.4806 42.5791C12.0685 42.5803 11.6653 42.4592 11.3221 42.2311C10.9789 42.0031 10.7111 41.6783 10.5526 41.298C10.394 40.9176 10.3519 40.4988 10.4316 40.0945C10.5112 39.6902 10.7091 39.3186 11 39.0268C11.291 38.735 11.6619 38.5361 12.066 38.4552C12.47 38.3744 12.889 38.4153 13.2698 38.5727C13.6506 38.7301 13.9762 38.997 14.2053 39.3395C14.4343 39.682 14.5566 40.0848 14.5566 40.4969C14.5566 41.0481 14.3381 41.5768 13.9489 41.9671C13.5598 42.3574 13.0317 42.5775 12.4806 42.5791Z" fill="#0276DD"/>
<path d="M25.3081 42.8479H42.7897C43.2674 44.1323 44.1265 45.2398 45.2518 46.0219C46.377 46.8039 47.7146 47.2231 49.085 47.2231C50.4553 47.2231 51.7929 46.8039 52.9182 46.0219C54.0434 45.2398 54.9026 44.1323 55.3803 42.8479H59.453C59.9518 42.8479 60.4301 42.6497 60.7828 42.2971C61.1355 41.9444 61.3337 41.466 61.3337 40.9672V40.0391C61.3333 39.6859 61.2334 39.3399 61.0455 39.0407C60.8576 38.7416 60.5893 38.5014 60.2712 38.3477V35.6916C60.2725 34.3612 59.8135 33.0713 58.9722 32.0408C58.1308 31.0102 56.9588 30.3024 55.6551 30.0374L47.1066 28.3033L46.9112 28.2484C46.7838 27.7436 46.492 27.2956 46.0818 26.975C45.6717 26.6544 45.1665 26.4794 44.6459 26.4776H44.536L38.8329 21.5928C38.7801 21.5551 38.7227 21.5244 38.662 21.5012C37.5205 20.6552 36.2174 20.0525 34.8335 19.7305C27.4711 18.0329 19.7853 18.3727 12.6015 20.7135C10.3405 21.4785 8.40407 22.9846 7.10608 24.9878L4.1935 29.5184C3.47714 30.6287 3.09559 31.9218 3.09442 33.2431V36.0763C3.09471 36.695 3.17685 37.3109 3.33868 37.9081L3.50963 38.5187C3.25091 38.6893 3.03851 38.9214 2.89146 39.1942C2.74441 39.467 2.66729 39.772 2.66699 40.0819V41.0161C2.66699 41.263 2.71563 41.5076 2.81014 41.7358C2.90465 41.9639 3.04318 42.1713 3.21782 42.3459C3.39245 42.5205 3.5998 42.6591 3.82797 42.7536C4.05614 42.8481 4.30069 42.8967 4.54766 42.8967H6.13521C6.61291 44.1811 7.47206 45.2887 8.59733 46.0707C9.72261 46.8528 11.0602 47.2719 12.4305 47.2719C13.8009 47.2719 15.1385 46.8528 16.2637 46.0707C17.389 45.2887 18.2481 44.1811 18.7258 42.8967L25.3081 42.8479ZM27.1399 41.1321H19.1777C19.2173 40.7137 19.2173 40.2926 19.1777 39.8743H42.3805C42.344 40.2927 42.344 40.7136 42.3805 41.1321H27.1399ZM49.0728 45.4796C48.0813 45.4796 47.1121 45.1856 46.2877 44.6347C45.4633 44.0839 44.8208 43.3009 44.4413 42.3849C44.0619 41.4689 43.9626 40.461 44.156 39.4885C44.3495 38.5161 44.8269 37.6229 45.528 36.9218C46.2291 36.2207 47.1223 35.7432 48.0948 35.5498C49.0672 35.3564 50.0752 35.4557 50.9912 35.8351C51.9072 36.2145 52.6901 36.857 53.2409 37.6814C53.7918 38.5058 54.0858 39.475 54.0858 40.4665C54.0882 41.1257 53.9608 41.7788 53.7108 42.3887C53.4607 42.9986 53.0931 43.5532 52.6287 44.021C52.1643 44.4888 51.6124 44.8605 51.0043 45.1149C50.3963 45.3694 49.7441 45.5016 49.085 45.504L49.0728 45.4796ZM59.3981 39.8743H59.4408C59.4845 39.8743 59.5264 39.8916 59.5573 39.9225C59.5883 39.9534 59.6056 39.9954 59.6056 40.0391V41.0161C59.6056 41.0598 59.5883 41.1017 59.5573 41.1326C59.5264 41.1636 59.4845 41.1809 59.4408 41.1809H55.7772C55.8168 40.7626 55.8168 40.3414 55.7772 39.9231L59.3981 39.8743ZM56.2351 32.0341C56.7729 32.2945 57.2472 32.6693 57.6248 33.1324C58.0025 33.5954 58.2742 34.1355 58.4211 34.7147H56.9007C56.8141 34.7147 56.7283 34.6976 56.6483 34.6645C56.5683 34.6313 56.4956 34.5827 56.4344 34.5215C56.3731 34.4603 56.3246 34.3876 56.2914 34.3076C56.2583 34.2276 56.2412 34.1418 56.2412 34.0552L56.2351 32.0341ZM42.753 28.8101C42.753 28.6482 42.8173 28.4929 42.9319 28.3784C43.0464 28.2639 43.2017 28.1995 43.3636 28.1995H44.6886C44.8506 28.1995 45.0059 28.2639 45.1204 28.3784C45.2349 28.4929 45.2992 28.6482 45.2992 28.8101V30.1046C45.2992 30.2666 45.2349 30.4219 45.1204 30.5364C45.0059 30.6509 44.8506 30.7152 44.6886 30.7152H43.4003C43.2383 30.7152 43.083 30.6509 42.9685 30.5364C42.854 30.4219 42.7897 30.2666 42.7897 30.1046L42.753 28.8101ZM5.06054 31.7471H5.71389C5.87583 31.7471 6.03117 31.8115 6.14568 31.926C6.26019 32.0405 6.32449 32.1958 6.32449 32.3577V33.1149C6.32449 33.2768 6.26019 33.4321 6.14568 33.5466C6.03117 33.6612 5.87583 33.7255 5.71389 33.7255H4.84685C4.82331 33.0665 4.89947 32.4078 5.07277 31.7715L5.06054 31.7471ZM4.58429 41.1321C4.54057 41.1321 4.49863 41.1147 4.46772 41.0838C4.4368 41.0529 4.41942 41.011 4.41942 40.9672V40.0391C4.41942 39.9954 4.4368 39.9534 4.46772 39.9225C4.49863 39.8916 4.54057 39.8743 4.58429 39.8743H5.76275C5.72308 40.2926 5.72308 40.7137 5.76275 41.1321H4.58429ZM6.14132 38.1585H5.23764L5.03002 37.4013C4.90846 36.9576 4.84686 36.4997 4.84685 36.0397V35.4291H5.71389C6.33251 35.4291 6.9258 35.1833 7.36323 34.7459C7.80066 34.3085 8.0464 33.7152 8.0464 33.0966V32.3394C8.0468 31.7549 7.82716 31.1917 7.43117 30.7617C7.03518 30.3318 6.49186 30.0667 5.90929 30.0191L8.58373 25.8548C9.66797 24.187 11.2806 22.9313 13.1632 22.2889C20.046 20.0496 27.4086 19.7267 34.4611 21.3547C35.6668 21.6337 36.7992 22.1666 37.7827 22.9178C37.7827 22.9178 37.8194 22.9178 37.8316 22.9178L42.2462 26.789C41.8455 27.0169 41.5173 27.3534 41.2998 27.7599L37.3126 24.3344C36.4058 23.5515 35.3225 23.0004 34.1558 22.7285C27.3512 21.147 20.2437 21.4574 13.6029 23.6261C12.0073 24.1655 10.6408 25.2285 9.72555 26.6425C9.55411 26.914 9.48512 27.2379 9.53101 27.5557C9.5769 27.8736 9.73467 28.1646 9.97592 28.3766L13.4991 31.4296C13.7424 31.6427 14.0549 31.7599 14.3783 31.7593H41.715C41.9313 31.9784 42.189 32.1521 42.473 32.2706C42.7571 32.3891 43.062 32.4498 43.3698 32.4493H44.6886C45.3068 32.4477 45.8991 32.2015 46.3362 31.7644C46.7733 31.3273 47.0195 30.7349 47.0211 30.1168V30.0252L54.5438 31.5639V34.0552C54.5454 34.6857 54.797 35.2899 55.2434 35.7351C55.6898 36.1804 56.2946 36.4304 56.9251 36.4304H58.5676V38.1585H55.4291C54.9634 36.8535 54.1055 35.7245 52.973 34.9262C51.8405 34.1279 50.4888 33.6994 49.1033 33.6994C47.7177 33.6994 46.3661 34.1279 45.2336 34.9262C44.1011 35.7245 43.2432 36.8535 42.7775 38.1585H18.8052C18.3395 36.8535 17.4816 35.7245 16.3491 34.9262C15.2166 34.1279 13.8649 33.6994 12.4794 33.6994C11.0938 33.6994 9.74216 34.1279 8.60967 34.9262C7.47717 35.7245 6.61927 36.8535 6.15354 38.1585H6.14132ZM41.025 29.7993V30.0558H30.0342V23.7421C31.3004 23.8977 32.5578 24.1178 33.8016 24.4016C34.7028 24.6044 35.541 25.0235 36.244 25.6228L41.025 29.7993ZM14.5127 30.0558L11.3498 27.302C12.6381 25.5373 14.36 25.0794 16.7902 24.481L18.4694 24.1085C21.6998 23.495 24.9975 23.3143 28.2757 23.5712V30.0558H14.531H14.5127ZM12.461 45.504C11.4696 45.504 10.5003 45.21 9.67595 44.6592C8.85156 44.1083 8.20903 43.3254 7.82961 42.4094C7.45018 41.4933 7.35089 40.4854 7.54432 39.513C7.73775 38.5405 8.21522 37.6473 8.91631 36.9462C9.6174 36.2451 10.5106 35.7677 11.483 35.5742C12.4555 35.3808 13.4634 35.4801 14.3795 35.8595C15.2955 36.2389 16.0784 36.8815 16.6293 37.7059C17.1801 38.5302 17.4741 39.4995 17.4741 40.491C17.4725 41.8168 16.9464 43.0882 16.0105 44.0275C15.0747 44.9667 13.8052 45.4976 12.4794 45.504H12.461Z" fill="#0276DD"/>
</svg>
