<svg width="65" height="64" viewBox="0 0 65 64" fill="none" xmlns="http://www.w3.org/2000/svg">
<path d="M24.6272 52.3698C23.5105 52.3685 22.4145 52.0684 21.453 51.5006C20.4914 50.9329 19.6993 50.1181 19.1588 49.141C18.5217 50.2973 17.5345 51.222 16.3391 51.7823C15.1436 52.3426 13.8015 52.5098 12.5051 52.2598C11.2088 52.0098 10.025 51.3555 9.12374 50.3908C8.22244 49.4261 7.64996 48.2006 7.48851 46.8903C6.90673 46.8363 6.36602 46.5671 5.97233 46.1354C5.57864 45.7036 5.36029 45.1405 5.36002 44.5562V42.2111C5.36002 41.5906 5.60656 40.9955 6.04532 40.5567C6.48408 40.1179 7.07918 39.8714 7.69969 39.8714H31.2459V33.6806C31.2459 29.1014 31.2459 17.6034 31.2459 17.1199C31.248 16.7088 31.1107 16.3091 30.8564 15.9861C30.602 15.6631 30.2457 15.4358 29.8455 15.3416C29.504 15.2604 29.1998 15.0665 28.982 14.7913C28.7643 14.516 28.6456 14.1754 28.6451 13.8244V12.2962C28.6376 11.9795 28.7205 11.6672 28.8841 11.3959C29.0475 11.1388 29.2821 10.9348 29.5593 10.8085C29.8365 10.6822 30.1444 10.6392 30.4456 10.6846C31.9766 10.9291 33.3703 11.7112 34.3766 12.8907C35.3829 14.0701 35.9358 15.5695 35.9362 17.1199H38.0202C39.5419 17.1224 41.0105 17.6789 42.1518 18.6852C43.2932 19.6915 44.0291 21.0789 44.2222 22.5883H45.0502C45.9377 22.5848 46.7998 22.885 47.4932 23.439C48.1866 23.9929 48.6698 24.7673 48.8625 25.6337L50.363 32.3024H54.9478C55.7068 32.3024 56.4348 32.6039 56.9715 33.1407C57.5082 33.6774 57.8098 34.4054 57.8098 35.1644V42.3556C58.0744 42.4816 58.2978 42.6801 58.4542 42.9279C58.6106 43.1758 58.6935 43.4629 58.6934 43.756V45.3231C58.6934 45.7373 58.5289 46.1345 58.236 46.4274C57.9431 46.7202 57.5459 46.8847 57.1318 46.8847H54.4809C54.2939 48.3971 53.5604 49.7889 52.4187 50.7981C51.2769 51.8073 49.8056 52.3644 48.2818 52.3644C46.7579 52.3644 45.2866 51.8073 44.1449 50.7981C43.0031 49.7889 42.2697 48.3971 42.0826 46.8847H30.8347C30.6452 48.398 29.9101 49.7902 28.7673 50.8001C27.6244 51.8099 26.1523 52.3681 24.6272 52.3698V52.3698ZM7.69969 41.433C7.49334 41.433 7.29543 41.515 7.14952 41.6609C7.00361 41.8068 6.92165 42.0047 6.92165 42.2111V44.5562C6.92123 44.7251 6.975 44.8896 7.07503 45.0257C7.17506 45.1617 7.31608 45.2621 7.47738 45.312C7.67167 43.8062 8.4087 42.423 9.55024 41.4219L7.69969 41.433ZM15.4188 41.6887C14.7626 41.459 14.0647 41.3733 13.3724 41.4375C12.6802 41.5017 12.01 41.7143 11.4072 42.0607C10.8045 42.4071 10.2835 42.8793 9.87966 43.4452C9.47579 44.011 9.19852 44.6572 9.06676 45.3398C8.94555 46.0729 8.99982 46.8242 9.22509 47.5323C9.45037 48.2403 9.84022 48.8848 10.3627 49.4131C10.8853 49.9413 11.5255 50.3382 12.2311 50.5712C12.9366 50.8041 13.6874 50.8666 14.4217 50.7533C15.156 50.6401 15.8531 50.3545 16.4557 49.9198C17.0583 49.4851 17.5493 48.9138 17.8884 48.2527C18.2276 47.5916 18.4051 46.8596 18.4067 46.1166C18.4082 45.3736 18.2337 44.6408 17.8973 43.9783C17.6645 43.4516 17.3258 42.9786 16.9023 42.5885C16.4787 42.1984 15.9794 41.8997 15.4354 41.7109L15.4188 41.6887ZM17.8195 41.433C18.3577 41.9083 18.8107 42.4722 19.1588 43.1002C19.5071 42.4708 19.9621 41.9066 20.5036 41.433H17.8195ZM26.3555 41.6887C25.6993 41.459 25.0014 41.3733 24.3092 41.4375C23.617 41.5017 22.9467 41.7143 22.344 42.0607C21.7413 42.4071 21.2202 42.8793 20.8164 43.4452C20.4125 44.011 20.1353 44.6572 20.0035 45.3398C19.8838 46.0723 19.9391 46.8228 20.1651 47.5299C20.391 48.2369 20.7812 48.8804 21.3037 49.4076C21.8261 49.9349 22.466 50.331 23.1709 50.5634C23.8758 50.7959 24.6257 50.8582 25.3593 50.7451C26.093 50.6321 26.7893 50.347 27.3916 49.9131C27.9938 49.4792 28.4848 48.9089 28.8242 48.2488C29.1637 47.5887 29.3421 46.8576 29.3448 46.1154C29.3475 45.3731 29.1743 44.6408 28.8396 43.9783C28.6047 43.452 28.2647 42.9793 27.8404 42.5894C27.416 42.1995 26.9164 41.9005 26.3722 41.7109L26.3555 41.6887ZM30.2012 12.235V13.83C30.9428 14.0055 31.6033 14.4265 32.0754 15.0248C32.5476 15.623 32.8036 16.3633 32.802 17.1255H34.3636C34.3496 15.9576 33.9274 14.8315 33.1702 13.9423C32.413 13.0532 31.3685 12.457 30.2178 12.2573L30.2012 12.235ZM38.0147 18.6871H32.8075V22.5772H42.6495C42.4611 21.4882 41.8948 20.5006 41.0501 19.788C40.2054 19.0755 39.1365 18.6836 38.0314 18.6815L38.0147 18.6871ZM54.4754 45.362H57.1262V43.7949H54.0808C54.2849 44.2896 54.4232 44.8091 54.492 45.3398L54.4754 45.362ZM48.7736 50.8026C49.659 50.7073 50.4989 50.3615 51.1949 49.8059C51.8908 49.2503 52.414 48.5078 52.7031 47.6655C52.9921 46.8231 53.0351 45.9159 52.827 45.05C52.6189 44.1841 52.1683 43.3955 51.528 42.7765C50.8878 42.1576 50.0843 41.7339 49.2119 41.5552C48.3394 41.3766 47.4342 41.4502 46.6021 41.7677C45.7701 42.0851 45.0457 42.6331 44.514 43.3474C43.9822 44.0618 43.6651 44.9129 43.5998 45.8011C43.5554 46.4848 43.661 47.17 43.9092 47.8086C44.1574 48.4472 44.5422 49.0239 45.0366 49.4982C45.5311 49.9725 46.1233 50.3331 46.7716 50.5545C47.42 50.776 48.109 50.8531 48.7903 50.7804L48.7736 50.8026ZM48.2734 39.8937C49.209 39.8949 50.1324 40.1057 50.9758 40.5105C51.8192 40.9154 52.5611 41.5041 53.1472 42.2333H56.2426V35.1811C56.2426 35.0103 56.209 34.8412 56.1436 34.6834C56.0782 34.5257 55.9825 34.3823 55.8617 34.2616C55.741 34.1408 55.5976 34.045 55.4398 33.9797C55.2821 33.9143 55.113 33.8807 54.9422 33.8807H49.735C49.557 33.8802 49.3843 33.8196 49.2451 33.7086C49.1059 33.5976 49.0082 33.4428 48.9681 33.2694L47.3009 25.9782C47.1875 25.4578 46.8987 24.9921 46.4829 24.6593C46.0671 24.3264 45.5495 24.1466 45.0169 24.1499H32.7908V40.6495C32.7908 40.8573 32.7083 41.0566 32.5613 41.2035C32.4144 41.3505 32.2151 41.433 32.0073 41.433H28.7396C29.8811 42.4341 30.6182 43.8173 30.8124 45.3231H36.9255V26.4895C36.9255 26.2831 37.0074 26.0853 37.1533 25.9393C37.2992 25.7934 37.4972 25.7115 37.7035 25.7115H45.2447C45.423 25.7109 45.5962 25.7712 45.7357 25.8823C45.8751 25.9935 45.9724 26.1488 46.0116 26.3228L47.4954 32.9248C47.5202 33.0391 47.5191 33.1575 47.4925 33.2714C47.4658 33.3853 47.4142 33.4918 47.3414 33.5833C47.2685 33.6747 47.1762 33.7489 47.0712 33.8003C46.9662 33.8518 46.851 33.8792 46.7341 33.8807H38.5204V45.3398H42.066C42.2584 43.8262 42.9972 42.4351 44.1434 41.428C45.2896 40.4209 46.7643 39.8674 48.2901 39.8714L48.2734 39.8937ZM38.5204 32.3191H45.7449L44.6334 27.2731H38.5204V32.3191Z" fill="#0276DD"/>
<path d="M48.2898 43.006C48.9089 43.0005 49.5156 43.1788 50.0332 43.5182C50.5509 43.8577 50.9562 44.3431 51.1979 44.913C51.4396 45.4829 51.5069 46.1117 51.3911 46.7198C51.2753 47.3279 50.9817 47.888 50.5475 48.3292C50.1133 48.7704 49.558 49.0729 48.9518 49.1984C48.3456 49.3239 47.7158 49.2668 47.1421 49.0342C46.5684 48.8016 46.0766 48.4041 45.7289 47.892C45.3812 47.3798 45.1933 46.776 45.1889 46.157C45.1844 45.3286 45.5081 44.5321 46.0892 43.9416C46.6703 43.3512 47.4615 43.0148 48.2898 43.006V43.006ZM48.2898 47.9742C48.6552 47.9753 49.0127 47.8679 49.3169 47.6656C49.6212 47.4633 49.8585 47.1752 49.9989 46.8378C50.1392 46.5005 50.1762 46.129 50.1052 45.7706C50.0342 45.4122 49.8584 45.0829 49.6 44.8246C49.3416 44.5662 49.0124 44.3904 48.654 44.3194C48.2955 44.2483 47.9241 44.2853 47.5868 44.4257C47.2494 44.566 46.9613 44.8034 46.759 45.1076C46.5567 45.4119 46.4493 45.7694 46.4504 46.1347C46.4518 46.6221 46.6461 47.0892 46.9907 47.4338C47.3354 47.7785 47.8024 47.9727 48.2898 47.9742V47.9742Z" fill="#0276DD"/>
<path d="M24.671 49.2585C24.052 49.2585 23.4469 49.0748 22.9322 48.7308C22.4176 48.3868 22.0166 47.8978 21.7799 47.3258C21.5433 46.7537 21.4817 46.1244 21.6029 45.5173C21.724 44.9102 22.0226 44.3527 22.4607 43.9154C22.8988 43.4781 23.4568 43.1805 24.0641 43.0604C24.6714 42.9403 25.3006 43.0031 25.8723 43.2407C26.4439 43.4784 26.9321 43.8803 27.2752 44.3955C27.6183 44.9108 27.8009 45.5162 27.7998 46.1353C27.7998 46.5459 27.7189 46.9525 27.5616 47.3318C27.4043 47.7111 27.1737 48.0556 26.8831 48.3457C26.5925 48.6358 26.2475 48.8657 25.868 49.0223C25.4884 49.179 25.0817 49.2592 24.671 49.2585ZM24.671 44.2903C24.3061 44.2903 23.9494 44.3985 23.646 44.6012C23.3426 44.8039 23.1061 45.0921 22.9665 45.4292C22.8268 45.7664 22.7903 46.1373 22.8615 46.4952C22.9327 46.8531 23.1084 47.1819 23.3665 47.4399C23.6245 47.6979 23.9532 47.8737 24.3111 47.9449C24.669 48.0161 25.04 47.9795 25.3771 47.8399C25.7142 47.7002 26.0024 47.4637 26.2051 47.1603C26.4079 46.8569 26.5161 46.5002 26.5161 46.1353C26.5161 45.646 26.3217 45.1767 25.9757 44.8307C25.6297 44.4846 25.1604 44.2903 24.671 44.2903V44.2903Z" fill="#0276DD"/>
<path d="M13.7289 49.2585C13.1085 49.2606 12.5014 49.0783 11.9848 48.7346C11.4682 48.3909 11.0655 47.9014 10.8278 47.3283C10.5902 46.7551 10.5282 46.1243 10.65 45.5159C10.7717 44.9075 11.0716 44.349 11.5115 43.9115C11.9514 43.4739 12.5115 43.177 13.1206 43.0585C13.7296 42.9401 14.36 43.0054 14.9319 43.2461C15.5037 43.4869 15.9912 43.8922 16.3321 44.4106C16.673 44.929 16.8521 45.5371 16.8466 46.1575C16.8407 46.981 16.5098 47.7689 15.9259 48.3496C15.342 48.9304 14.5524 49.257 13.7289 49.2585ZM13.7289 44.2903C13.364 44.2903 13.0073 44.3985 12.7039 44.6012C12.4005 44.8039 12.164 45.0921 12.0244 45.4292C11.8847 45.7663 11.8482 46.1373 11.9193 46.4952C11.9905 46.8531 12.1662 47.1819 12.4243 47.4399C12.6823 47.6979 13.0111 47.8737 13.369 47.9448C13.7269 48.016 14.0978 47.9795 14.435 47.8398C14.7721 47.7002 15.0603 47.4637 15.263 47.1603C15.4657 46.8569 15.5739 46.5002 15.5739 46.1353C15.5739 45.6459 15.3795 45.1766 15.0335 44.8306C14.6875 44.4846 14.2183 44.2903 13.7289 44.2903V44.2903Z" fill="#0276DD"/>
<path d="M29.1357 18.9282V37.4507C29.1365 37.5672 29.1141 37.6827 29.0701 37.7905C29.026 37.8984 28.961 37.9965 28.8789 38.0791C28.7968 38.1617 28.6991 38.2273 28.5915 38.2721C28.484 38.3168 28.3686 38.3398 28.2521 38.3398H7.64566C7.52889 38.3398 7.41333 38.3168 7.30545 38.2722C7.19758 38.2275 7.09951 38.162 7.01694 38.0794C6.93437 37.9968 6.8689 37.8988 6.82421 37.791C6.77953 37.6831 6.75651 37.5674 6.75651 37.4507V18.9282C6.75651 18.6924 6.85019 18.4662 7.01694 18.2995C7.18369 18.1327 7.40984 18.0391 7.64566 18.0391H28.2521C28.487 18.0405 28.7117 18.1349 28.8773 18.3015C29.0428 18.4681 29.1357 18.6934 29.1357 18.9282V18.9282ZM27.363 19.8174H8.51263V36.5671H27.3407L27.363 19.8174Z" fill="#0276DD"/>
</svg>
