<svg width="65" height="64" viewBox="0 0 65 64" fill="none" xmlns="http://www.w3.org/2000/svg">
<path d="M46.9347 28.9281C46.9384 28.898 46.9384 28.8675 46.9347 28.8374C46.6117 26.6025 45.744 24.4813 44.4079 22.6609C43.0719 20.8404 41.3085 19.3765 39.2733 18.3982C37.2381 17.4199 34.9935 16.9572 32.7374 17.0509C30.4812 17.1446 28.2827 17.7919 26.3356 18.9355C25.3153 19.5215 24.3768 20.2394 23.5444 21.0708C22.7162 21.9078 21.9965 22.8456 21.4022 23.862C21.1719 24.2668 20.9625 24.6785 20.7741 25.0902C20.4205 25.8558 20.1379 26.6524 19.9298 27.4697C19.9298 27.5813 19.8809 27.686 19.853 27.7976C19.7925 28.0907 19.7367 28.3838 19.6855 28.6769C19.6855 28.7606 19.6856 28.8513 19.6367 28.935C19.5879 29.0188 19.6367 28.935 19.6367 28.935C19.4622 30.185 19.4622 31.4532 19.6367 32.7032C19.6367 32.7032 19.6367 32.759 19.6367 32.7939C20.0019 35.3228 21.0637 37.7002 22.7031 39.66C24.3426 41.6198 26.4951 43.0847 28.9198 43.8908C31.3445 44.6969 33.9456 44.8122 36.4322 44.2241C38.9187 43.6359 41.1925 42.3674 42.9991 40.5604C43.823 39.7214 44.5402 38.7839 45.1344 37.7692C45.3647 37.3645 45.574 36.9528 45.7624 36.5411C46.116 35.7754 46.3987 34.9789 46.6068 34.1616C46.6068 34.0499 46.6556 33.9453 46.6835 33.8336C46.7463 33.5475 46.8021 33.2475 46.851 32.9544C46.851 32.8706 46.851 32.7869 46.8998 32.6962C46.9486 32.6055 46.8998 32.6962 46.8998 32.6962C47.0823 31.4476 47.0941 30.1799 46.9347 28.9281V28.9281ZM45.3717 32.7451C45.3298 33.0056 45.281 33.2637 45.2251 33.5196C45.2251 33.6173 45.1832 33.715 45.1553 33.8057C44.8767 34.9262 44.4372 36.0003 43.8504 36.9947C43.3233 37.8877 42.6856 38.7106 41.9524 39.4439C40.0409 41.3595 37.5471 42.5854 34.8629 42.929C32.1787 43.2725 29.4564 42.7143 27.1241 41.342C26.2325 40.8128 25.4098 40.1753 24.6748 39.4439C23.942 38.7077 23.3044 37.8825 22.7768 36.9877C21.3447 34.5507 20.8044 31.6916 21.2486 28.9002C21.2905 28.6396 21.3394 28.3815 21.3952 28.1256C21.3952 28.0279 21.437 27.9372 21.465 27.8395C21.7435 26.7191 22.1831 25.6449 22.7698 24.6505C23.2969 23.7575 23.9346 22.9346 24.6678 22.2013C26.5793 20.2857 29.0732 19.0598 31.7574 18.7162C34.4416 18.3727 37.1638 18.9309 39.4961 20.3032C41.2918 21.3615 42.788 22.8602 43.8434 24.6575C45.2739 27.0925 45.8142 29.9488 45.3717 32.7381V32.7451Z" fill="#0276DD"/>
<path d="M53.3398 29.7201C53.3398 29.3851 53.2979 29.0223 53.263 28.7152V28.5338C53.263 28.2826 53.2003 28.0314 53.1654 27.7872C53.1654 27.6546 53.1235 27.529 53.0955 27.3964C53.0676 27.2638 53.0397 27.0405 53.0048 26.8591C52.9699 26.6776 52.9281 26.5032 52.8863 26.3218C52.8444 26.1403 52.8304 26.0706 52.7955 25.938C52.7606 25.8054 52.6839 25.5193 52.6281 25.31L52.5443 25.0169C52.4815 24.7936 52.4047 24.5703 52.328 24.3191L52.2512 24.0749C52.1675 23.8516 52.0838 23.6283 51.993 23.377C51.993 23.2933 51.9372 23.2166 51.9023 23.1328C51.8116 22.9235 51.7209 22.7072 51.6232 22.4978C51.6232 22.4071 51.5465 22.3234 51.5046 22.2327C51.4628 22.142 51.3162 21.8489 51.2255 21.6605L51.065 21.3395L50.7859 20.844L50.5765 20.4742C50.4928 20.3346 50.402 20.1951 50.3113 20.0555C50.2206 19.9159 50.1369 19.7694 50.0392 19.6299C49.9415 19.4903 49.8857 19.3996 49.8019 19.2879C49.7182 19.1763 49.5856 18.9669 49.467 18.8134L49.2576 18.5343C49.1251 18.3668 48.9925 18.1924 48.8529 18.0249C48.7134 17.8575 48.7134 17.8644 48.6505 17.7877C48.5877 17.7109 48.3575 17.4388 48.2039 17.2713C48.0504 17.1038 47.9667 17.0201 47.855 16.9015L47.5271 16.5525C45.0227 14.0433 41.8976 12.243 38.4705 11.3353C35.0434 10.4275 31.437 10.4448 28.0188 11.3854C24.6006 12.3259 21.4929 14.1561 19.0126 16.6893C16.5324 19.2225 14.7683 22.3681 13.9001 25.8054C13.9001 25.9031 13.8512 26.0008 13.8303 26.0915C13.7745 26.3078 13.7326 26.5172 13.6907 26.7265C13.6488 26.9359 13.6349 26.9847 13.6139 27.1173C13.593 27.2499 13.5442 27.522 13.5162 27.7244L13.4535 28.1361C13.4535 28.3384 13.4046 28.5408 13.3837 28.7431C13.3628 28.9455 13.3837 29.0223 13.3837 29.1548L13.3418 29.7759C13.3418 29.9085 13.3418 30.048 13.3418 30.1876C13.3418 30.3272 13.3418 30.5993 13.3418 30.8017V30.8854C13.3418 31.018 13.3418 31.1436 13.3418 31.2762C13.3418 31.4088 13.3418 31.639 13.3418 31.8205C13.3418 32.1554 13.3837 32.5183 13.4185 32.8323V33.0067C13.4185 33.2579 13.4744 33.5091 13.5162 33.7603C13.5162 33.8859 13.5581 34.0185 13.579 34.1441C13.6 34.2697 13.6418 34.507 13.6767 34.6814C13.7116 34.8559 13.7535 35.0443 13.7954 35.2187L13.8791 35.6025L14.0466 36.2375L14.1303 36.5236C14.2001 36.7469 14.2699 36.9702 14.3467 37.2214L14.4304 37.4657C14.5072 37.6959 14.5979 37.9192 14.6816 38.1635C14.6816 38.2402 14.7444 38.324 14.7793 38.4007C14.863 38.617 14.9538 38.8264 15.0515 39.0357L15.17 39.3079C15.2607 39.4963 15.3585 39.6916 15.4562 39.8801C15.5538 40.0685 15.5608 40.0894 15.6166 40.1941C15.6725 40.2987 15.7981 40.529 15.8888 40.6965C15.9795 40.864 16.0283 40.9407 16.1051 41.0663L16.3632 41.485L16.6354 41.9107L16.8727 42.2456L17.2076 42.7271L17.4239 42.9992C17.5565 43.1737 17.6822 43.3481 17.8217 43.5156L18.031 43.7529C18.1775 43.9273 18.3241 44.1018 18.4776 44.2692C18.6311 44.4367 18.7079 44.5135 18.8265 44.6391L19.1545 44.981C21.6577 47.4906 24.7817 49.2915 28.208 50.1998C31.6342 51.1082 35.2402 51.0915 38.6579 50.1516C42.0756 49.2117 45.1829 47.3822 47.6629 44.8495C50.1428 42.3169 51.9067 39.1718 52.7746 35.7351C52.7746 35.6374 52.8304 35.5397 52.8513 35.442C52.9002 35.2327 52.9421 35.0164 52.984 34.807C53.0258 34.5977 53.0398 34.5489 53.0607 34.4233C53.0816 34.2977 53.1305 34.0185 53.1654 33.8162C53.2003 33.6138 53.2072 33.5371 53.2212 33.3975C53.2351 33.2579 53.27 32.9928 53.2909 32.7904C53.3119 32.588 53.2909 32.5182 53.2909 32.3787C53.2909 32.2391 53.3259 31.967 53.3329 31.7646C53.3398 31.5623 53.3329 31.4855 53.3329 31.3529C53.3329 31.2203 53.3329 30.9412 53.3329 30.7319V30.6412C53.3329 30.5086 53.3329 30.376 53.3329 30.2504C53.3329 30.1248 53.3468 29.9015 53.3398 29.7201ZM51.8116 31.3599C51.8116 31.4576 51.8116 31.5553 51.8116 31.653C51.8116 31.8623 51.7977 32.0717 51.7698 32.281V32.602C51.7698 32.8044 51.7209 32.9997 51.6999 33.2021C51.679 33.4045 51.7 33.4324 51.6511 33.544C51.6023 33.6557 51.5883 33.9348 51.5534 34.1302L51.4907 34.4651C51.4488 34.6675 51.4069 34.8629 51.358 35.0582C51.3092 35.2536 51.3092 35.2536 51.2883 35.3513L51.1208 35.9863C51.1208 36.0422 51.1208 36.091 51.072 36.1468C50.2125 38.9883 48.6806 41.5806 46.606 43.704L46.5641 43.7738L46.4456 43.8994C43.411 46.9312 39.4187 48.8165 35.1496 49.2339C30.8804 49.6513 26.5986 48.5749 23.0343 46.1882V46.1882C22.0306 45.5167 21.0956 44.7477 20.2431 43.8924C20.0686 43.718 19.9012 43.5366 19.7337 43.3621L19.608 43.2295C19.4406 43.0411 19.2801 42.8527 19.1196 42.6573L19.0079 42.5387C18.8614 42.3572 18.7219 42.1758 18.5823 41.9874L18.4428 41.813L18.0869 41.3036C18.0311 41.2198 17.9683 41.1431 17.9194 41.0593C17.8706 40.9756 17.717 40.7523 17.6193 40.5988C17.5216 40.4453 17.4867 40.3895 17.4239 40.2778L17.1937 39.8731C17.1169 39.7405 17.0402 39.6079 16.9704 39.4753L16.789 39.1195C16.7122 38.9659 16.6354 38.8124 16.5656 38.6589L16.4052 38.317C16.3284 38.1495 16.2517 37.9751 16.1819 37.8076L16.0702 37.5075L15.8609 36.9632C15.8609 36.8656 15.798 36.7609 15.7631 36.6562C15.7283 36.5515 15.6445 36.3003 15.5887 36.1189L15.4841 35.756C15.4422 35.5955 15.3933 35.4351 15.3585 35.2746C15.3236 35.1141 15.2817 34.9675 15.2538 34.814C15.2259 34.6605 15.191 34.5558 15.163 34.4233L15.0584 33.8092L15.0165 33.5719C14.9747 33.2928 14.9398 33.0207 14.9119 32.7416C14.9119 32.4345 14.856 32.1275 14.8421 31.8205C14.8281 31.5134 14.8421 31.4018 14.8421 31.1924C14.8421 31.0878 14.8421 30.9901 14.8421 30.8854C14.8421 30.6691 14.8421 30.4528 14.8421 30.2365C14.8421 30.1318 14.8421 30.0341 14.8421 29.9364C14.8421 29.727 14.842 29.5177 14.8839 29.3153C14.9258 29.113 14.8839 29.099 14.8839 28.9874C14.8839 28.8757 14.9258 28.5896 14.9538 28.3942L14.9956 28.0523C14.9956 27.85 15.0584 27.6546 15.0933 27.4662C15.1282 27.2778 15.1351 27.2359 15.163 27.1242C15.191 27.0126 15.2398 26.7335 15.2887 26.5311C15.3375 26.3287 15.3375 26.3357 15.3585 26.238C15.4143 26.0287 15.4701 25.8124 15.5329 25.603C15.546 25.5509 15.5623 25.4996 15.5817 25.4495C16.4369 22.6078 17.9667 20.015 20.0407 17.8923C20.0572 17.8707 20.0712 17.8473 20.0826 17.8226L20.2012 17.697C23.2362 14.6665 27.2278 12.7815 31.4963 12.3629C35.7648 11.9443 40.0465 13.018 43.6124 15.4012V15.4012C44.6161 16.0754 45.551 16.8467 46.4036 17.7039C46.5781 17.8784 46.7456 18.0528 46.906 18.2343L47.0317 18.3599L47.5271 18.9321L47.6318 19.0577L48.0574 19.6019C48.1063 19.6647 48.1552 19.7206 48.197 19.7834C48.2389 19.8462 48.4412 20.1183 48.5528 20.2928C48.6645 20.4672 48.6715 20.4533 48.7273 20.537C48.7831 20.6207 48.9227 20.844 49.0204 20.9975L49.2158 21.3116L49.453 21.7233L49.6694 22.114L49.8508 22.4699L50.0811 22.9305C50.1299 23.0421 50.1718 23.1468 50.2206 23.2515C50.2694 23.3561 50.3742 23.5934 50.4439 23.7678C50.5137 23.9423 50.5207 23.9632 50.5625 24.0679C50.6044 24.1725 50.7021 24.4238 50.7649 24.6052L50.8696 24.9192C50.9254 25.0936 50.9882 25.2751 51.0371 25.4495C51.0859 25.624 51.1069 25.6937 51.1417 25.8124C51.1766 25.931 51.2324 26.1334 51.2743 26.3008L51.379 26.7614L51.4627 27.1452C51.5046 27.3545 51.5395 27.5569 51.5744 27.7662C51.5744 27.843 51.5744 27.9197 51.5744 27.9965C51.6163 28.2756 51.6581 28.5547 51.6861 28.8339C51.7209 29.1409 51.7419 29.4549 51.7558 29.7619C51.7698 30.069 51.7558 30.1806 51.7558 30.383C51.7558 30.5853 51.7558 30.5923 51.7558 30.697C51.8186 30.9273 51.8186 31.1436 51.8116 31.339V31.3599Z" fill="#0276DD"/>
<path d="M42.6067 25.3479C41.6737 23.7638 40.353 22.443 38.7688 21.51V21.51C38.0638 21.0975 37.3147 20.7651 36.5358 20.5191V20.5191C36.2916 20.4424 36.0473 20.3796 35.838 20.3168H35.7682C35.538 20.261 35.3077 20.2191 35.0704 20.1842H34.9727C34.7494 20.1842 34.5261 20.1284 34.2749 20.1074H34.1633C33.926 20.1074 33.6957 20.1074 33.4655 20.1074H33.3189H32.6211C30.9449 20.2207 29.3181 20.7224 27.8692 21.5728C26.2889 22.5109 24.9693 23.8305 24.0312 25.4107C23.0581 27.0646 22.5449 28.9486 22.5449 30.8675C22.5449 32.7865 23.0581 34.6705 24.0312 36.3243V36.3243C24.9643 37.9085 26.285 39.2292 27.8692 40.1623C28.573 40.5754 29.3223 40.9055 30.1021 41.1461V41.1461C30.3393 41.2159 30.5836 41.2857 30.7999 41.3415H30.8766C31.0999 41.3904 31.3302 41.4392 31.5744 41.4741H31.6791C31.8954 41.509 32.1187 41.5369 32.342 41.5579H32.4607C32.6909 41.5579 32.9212 41.5927 33.1585 41.5927H33.305C33.5422 41.5927 33.7865 41.5927 34.0028 41.5927C35.6791 41.4854 37.3069 40.9859 38.7548 40.1343C40.3351 39.1962 41.6547 37.8767 42.5928 36.2964C43.5659 34.6426 44.0791 32.7585 44.0791 30.8396C44.0791 28.9207 43.5659 27.0367 42.5928 25.3828L42.6067 25.3479ZM37.2546 25.5294C37.2917 25.4242 37.3082 25.3128 37.3034 25.2014L37.2615 24.4129L38.4827 23.1917C38.7688 23.4011 39.0339 23.5895 39.313 23.8267L39.6481 24.1268C39.8085 24.2803 39.969 24.4477 40.1225 24.6222C40.4177 24.9494 40.6927 25.2943 40.946 25.655V25.655L39.7318 26.8691L38.9293 26.8273C38.8203 26.821 38.7113 26.8376 38.6091 26.8761C38.5069 26.9145 38.414 26.974 38.3362 27.0506L36.5917 28.802C36.4352 28.551 36.2527 28.3171 36.0474 28.1042C35.8348 27.9005 35.6008 27.7204 35.3496 27.5669V27.5669L37.108 25.8085C37.1766 25.7272 37.2265 25.6319 37.2546 25.5294V25.5294ZM35.5798 30.8047C35.5765 31.1063 35.5132 31.4042 35.3934 31.681C35.2735 31.9578 35.0997 32.2079 34.882 32.4167V32.4167C34.6724 32.6269 34.4234 32.7938 34.1492 32.9075C33.875 33.0213 33.5809 33.0797 33.284 33.0796C32.6803 33.0798 32.101 32.8416 31.6721 32.4167C31.4542 32.2081 31.2801 31.9581 31.1603 31.6812C31.0404 31.4044 30.9772 31.1064 30.9743 30.8047C30.9637 30.6677 30.9637 30.5301 30.9743 30.393C31.0319 30.0841 31.1557 29.7913 31.3372 29.5347L31.4558 29.3882C31.4985 29.3293 31.5451 29.2733 31.5954 29.2207V29.2207C31.8036 29.0042 32.0526 28.8311 32.328 28.7113C32.6035 28.5915 32.8999 28.5275 33.2003 28.5229C33.5009 28.5255 33.798 28.5887 34.0737 28.7086C34.3495 28.8285 34.5983 29.0026 34.8053 29.2207C34.8601 29.278 34.9114 29.3386 34.9588 29.4021L35.0634 29.5277C35.2452 29.7893 35.369 30.0867 35.4263 30.4C35.4296 30.4114 35.4296 30.4235 35.4263 30.4349C35.4902 30.5525 35.5416 30.6765 35.5798 30.8047V30.8047ZM33.305 21.5728C34.6036 21.5776 35.887 21.8533 37.0731 22.3823V22.3823L35.9427 23.5127C35.9108 23.5518 35.8828 23.5938 35.8589 23.6383C35.7705 23.7677 35.7242 23.9212 35.7263 24.0779L35.7752 24.8944L33.6818 26.9459C33.4658 26.9303 33.2489 26.9303 33.0328 26.9459H32.9421L30.8906 24.8944L30.9324 24.0709C30.9386 23.963 30.9219 23.855 30.8834 23.754C30.845 23.653 30.7856 23.5613 30.7092 23.4848L29.5717 22.3543C30.7491 21.8397 32.02 21.5737 33.305 21.5728V21.5728ZM25.8873 25.32C26.5087 24.4835 27.2659 23.7571 28.1273 23.1708L29.3485 24.3919V24.4268L29.3066 25.2083C29.3066 25.2083 29.3066 25.2083 29.3066 25.2502C29.3028 25.4554 29.3807 25.6536 29.5229 25.8015L31.2813 27.553C31.0302 27.7066 30.7962 27.8867 30.5835 28.0903C30.374 28.2995 30.1912 28.5339 30.0393 28.7881L28.2878 27.0366C28.2116 26.9598 28.1199 26.9002 28.0188 26.8617C27.9177 26.8232 27.8096 26.8067 27.7016 26.8133L26.8782 26.8552L25.6641 25.634C25.7199 25.5573 25.7478 25.5084 25.8873 25.313V25.32ZM24.2824 28.8997C24.4157 28.2636 24.6168 27.6437 24.8825 27.0506L26.0339 28.1949C26.1101 28.2722 26.2015 28.3327 26.3025 28.3724C26.4035 28.412 26.5117 28.43 26.6201 28.4252L27.4365 28.3764L29.5299 30.4349V30.4698C29.5264 30.5255 29.5264 30.5815 29.5299 30.6372C29.5229 30.7488 29.5229 30.8607 29.5299 30.9722C29.5299 31.042 29.5299 31.1118 29.5299 31.1885L27.4365 33.2401L26.634 33.1982C26.5261 33.192 26.4181 33.2087 26.3171 33.2472C26.2161 33.2857 26.1243 33.3451 26.0478 33.4215L24.8965 34.5729C24.0935 32.7928 23.8785 30.8033 24.2824 28.8927V28.8997ZM29.4531 35.9475C29.3708 36.0768 29.3272 36.2269 29.3275 36.3802L29.3694 37.2036L28.1482 38.4247C27.8691 38.2154 27.597 38.02 27.3248 37.7897L26.9829 37.4897C26.8224 37.3361 26.6689 37.1687 26.5154 36.9942C26.2225 36.6718 25.9498 36.3316 25.6989 35.9754V35.9754L26.9201 34.7473L27.7295 34.7892C27.8375 34.7958 27.9457 34.7793 28.0468 34.7408C28.1478 34.7023 28.2395 34.6426 28.3157 34.5659L30.0672 32.8144C30.2169 33.07 30.4 33.3047 30.6115 33.5122C30.8196 33.725 31.0541 33.9102 31.3093 34.0635V34.0635L29.5717 35.801C29.5267 35.8425 29.4868 35.8894 29.4531 35.9405V35.9475ZM37.0452 39.2481C35.868 39.7726 34.5937 40.0437 33.305 40.0437C32.0162 40.0437 30.7419 39.7726 29.5648 39.2481V39.2481L30.7301 38.0898C30.879 37.9315 30.9592 37.7208 30.9534 37.5036L30.9116 36.7151L32.9631 34.6566C33.1789 34.6759 33.3962 34.6759 33.612 34.6566H33.7028L35.7962 36.7151L35.7543 37.5036C35.7536 37.5152 35.7536 37.5269 35.7543 37.5385C35.7529 37.6406 35.7721 37.742 35.8104 37.8366C35.8487 37.9313 35.9056 38.0174 35.9776 38.0898L37.1359 39.2551L37.0452 39.2481ZM40.932 36.0033L40.7226 36.2964C40.1038 37.1372 39.3464 37.8663 38.4827 38.4526L37.2615 37.2315L37.3034 36.4081C37.3095 36.3002 37.2929 36.1922 37.2544 36.0911C37.2159 35.9901 37.1565 35.8984 37.0801 35.8219L35.3426 34.0844C35.5963 33.9291 35.8306 33.744 36.0404 33.5331C36.2477 33.3219 36.4303 33.0878 36.5847 32.8353L38.3292 34.5868C38.4059 34.6628 38.4977 34.722 38.5986 34.7604C38.6996 34.7989 38.8075 34.8158 38.9153 34.8101L39.7387 34.7682L40.9668 35.9964L40.932 36.0033ZM42.5299 31.0629C42.4935 32.2673 42.2209 33.4527 41.7275 34.5519L40.5831 33.4006C40.5064 33.3245 40.4145 33.2654 40.3136 33.2269C40.2126 33.1885 40.1048 33.1715 39.997 33.1773L39.1735 33.2191L37.0801 31.1676C37.0836 31.1468 37.0836 31.1256 37.0801 31.1048C37.0836 31.056 37.0836 31.007 37.0801 30.9582C37.0872 30.849 37.0872 30.7395 37.0801 30.6303C37.0835 30.6118 37.0835 30.5929 37.0801 30.5744C37.0836 30.5303 37.0836 30.486 37.0801 30.4419C37.0801 30.4419 37.0801 30.4419 37.0801 30.4419L39.1735 28.3834L39.976 28.4322C40.0839 28.4379 40.1918 28.421 40.2927 28.3825C40.3936 28.3441 40.4854 28.2849 40.5621 28.2089L41.7065 27.0645C42.1064 27.9483 42.3608 28.8908 42.4601 29.8557C42.5006 30.2474 42.517 30.6413 42.509 31.035L42.5299 31.0629Z" fill="#0276DD"/>
</svg>
