<svg width="112" height="88" viewBox="0 0 112 88" fill="none" xmlns="http://www.w3.org/2000/svg">
<rect width="112" height="88" rx="12" fill="white"/>
<path d="M73 17.9991H63.8125C63.3875 16.7991 62.2625 15.9991 61 15.9991H59.875C59.325 13.8616 57.1375 12.5741 55 13.1241C53.5875 13.4866 52.4875 14.5866 52.125 15.9991H51C49.7375 15.9991 48.6125 16.7991 48.1875 17.9991H39C36.2375 17.9991 34 20.2366 34 22.9991V69.9991C34 72.7616 36.2375 74.9991 39 74.9991H73C75.7625 74.9991 78 72.7616 78 69.9991V22.9991C78 20.2366 75.7625 17.9991 73 17.9991ZM51 17.9991H53C53.55 17.9991 54 17.5491 54 16.9991C54 15.8991 54.9 14.9991 56 14.9991C57.1 14.9991 58 15.8991 58 16.9991C58 17.5491 58.45 17.9991 59 17.9991H61C61.55 17.9991 62 18.4491 62 18.9991C62 19.5491 61.55 19.9991 61 19.9991H51C50.45 19.9991 50 19.5491 50 18.9991C50 18.4491 50.45 17.9991 51 17.9991ZM76 69.9991C76 71.6616 74.6625 72.9991 73 72.9991H39C37.3375 72.9991 36 71.6616 36 69.9991V22.9991C36 21.3366 37.3375 19.9991 39 19.9991H48.1875C48.6125 21.1991 49.7375 21.9991 51 21.9991H61C62.2625 21.9991 63.3875 21.1991 63.8125 19.9991H73C74.6625 19.9991 76 21.3366 76 22.9991V69.9991Z" fill="#0276DD"/>
<path d="M73 24H39C38.45 24 38 24.45 38 25V70C38 70.55 38.45 71 39 71H73C73.55 71 74 70.55 74 70V25C74 24.45 73.55 24 73 24ZM72 69H40V26H72V69Z" fill="#0276DD"/>
<path d="M46.5875 38.9983H47.1875C47.725 40.5483 49.425 41.3733 50.9875 40.8358C51.85 40.5358 52.525 39.8608 52.825 38.9983H59.1875C59.725 40.5483 61.425 41.3733 62.9875 40.8358C63.875 40.5233 64.575 39.8108 64.85 38.9108C66.6875 38.5108 68 36.8858 68 35.0108V32.0108C68 31.7483 67.9 31.4858 67.7125 31.2983C65.6125 29.1858 62.75 27.9983 59.7625 28.0108C57.1125 28.0108 54.525 28.7983 52.325 30.2608L49.7 32.0108H48.4125C45.975 32.0108 44 33.9858 44 36.4233C44 37.8358 45.1625 38.9983 46.5875 38.9983ZM50 38.9983C49.45 38.9983 49 38.5483 49 37.9983C49 37.4483 49.45 36.9983 50 36.9983C50.55 36.9983 51 37.4483 51 37.9983C51 38.5483 50.55 38.9983 50 38.9983ZM62 38.9983C61.45 38.9983 61 38.5483 61 37.9983C61 37.4483 61.45 36.9983 62 36.9983C62.55 36.9983 63 37.4483 63 37.9983C63 38.5483 62.55 38.9983 62 38.9983ZM60 30.0108C62 30.0608 63.925 30.7608 65.4875 31.9983H60V30.0108ZM53.425 31.9108C54.8 30.9983 56.3625 30.3858 58 30.1358V31.9983H53.3L53.425 31.9108ZM46.7125 34.7108C47.1625 34.2608 47.775 33.9983 48.425 33.9983H66V34.9983C66 35.8108 65.5125 36.5358 64.7625 36.8483C64.125 35.3233 62.3875 34.5983 60.85 35.2233C60.0625 35.5483 59.45 36.1983 59.175 36.9983H52.8125C52.275 35.4483 50.575 34.6233 49.0125 35.1608C48.15 35.4608 47.475 36.1358 47.175 36.9983H46.575C46.25 36.9983 45.9875 36.7358 45.9875 36.4108C46 35.7733 46.25 35.1608 46.7125 34.7108Z" fill="#0276DD"/>
<path d="M43.4016 49.6125H46.6016C47.0391 49.6125 47.4016 49.25 47.4016 48.8125V45.6125C47.4016 45.175 47.0391 44.8125 46.6016 44.8125H43.4016C42.9641 44.8125 42.6016 45.175 42.6016 45.6125V48.8125C42.6016 49.25 42.9641 49.6125 43.4016 49.6125Z" fill="#0276DD"/>
<path d="M43.4016 57.3254H46.6016C47.0391 57.3254 47.4016 56.9629 47.4016 56.5254V53.3254C47.4016 52.8879 47.0391 52.5254 46.6016 52.5254H43.4016C42.9641 52.5254 42.6016 52.8879 42.6016 53.3254V56.5254C42.6016 56.9629 42.9641 57.3254 43.4016 57.3254Z" fill="#0276DD"/>
<path d="M43.4016 65.0363H46.6016C47.0391 65.0363 47.4016 64.6738 47.4016 64.2363V61.0363C47.4016 60.5988 47.0391 60.2363 46.6016 60.2363H43.4016C42.9641 60.2363 42.6016 60.5988 42.6016 61.0363V64.2363C42.6016 64.6863 42.9641 65.0363 43.4016 65.0363Z" fill="#0276DD"/>
<path d="M66 45.3125H51V47.3125H66V45.3125Z" fill="#0276DD"/>
<path d="M63 51.2236H51V53.2236H63V51.2236Z" fill="#0276DD"/>
<path d="M65 57.1357H51V59.1357H65V57.1357Z" fill="#0276DD"/>
<path d="M63 63.0361H51V65.0361H63V63.0361Z" fill="#0276DD"/>
</svg>
