<?xml version="1.0" encoding="UTF-8"?>
<svg id="Capa_1" data-name="Capa 1" xmlns="http://www.w3.org/2000/svg" viewBox="0 0 480 480">
  <defs>
    <style>
      .cls-1 {
        fill: #0071ce;
        stroke-width: 0px;
      }
    </style>
  </defs>
  <g id="SLqmMD.tif">
    <g>
      <path class="cls-1" d="m127.33,430.84c-5.15-1.72-10.57-2.86-15.38-5.26-11.45-5.71-17.92-15.12-18.44-28.13-.24-6.12-.12-12.25-.12-18.37,0-52.07.13-104.14-.1-156.2-.05-11.82,4.78-21.14,11.91-29.93,10.34-12.72,23.92-21.01,37.83-29.08,21.89-12.69,43.55-25.78,65.32-38.68,7.03-4.16,14.01-8.41,21.19-12.3,2.16-1.17,2.43-2.54,2.42-4.6-.05-14.33-.03-28.67-.03-43,0-.61-.01-1.23,0-1.84.13-6.24.99-9.02,8.99-9.07,12.98-.09,25.96-.02,38.93-.02,15.79,0,31.59,0,47.38,0,6.93,0,9.62,2.65,9.62,9.49,0,13.23.4,26.48-.15,39.69-.36,8.47,1.83,16.05,4.85,23.68,9.27,23.46,17.81,47.2,23.64,71.78,1.73,7.3,2.17,15.02,2.34,22.57.51,21.86.78,43.74.77,65.61,0,23.47-.4,46.93-.69,70.4-.16,13.3-.09,26.61-.81,39.88-.63,11.79-6.06,21.33-16.75,26.85-5.55,2.86-11.78,4.4-17.7,6.54H127.33ZM306.8,69.08v38.94c.19.21.39.42.58.63h15.62v-40.2h-15.62c-.19.21-.39.42-.58.63Zm18.74,53.33c-28.1,0-55.66,0-83.21.03-1.06,0-2.29.1-3.17.62-16.91,9.95-33.76,19.99-50.65,29.97-13.03,7.7-26.06,15.41-39.15,23.01-11.97,6.95-23.71,14.22-32.84,24.86-5.36,6.24-9.29,12.98-9.26,21.86.2,57.23.1,114.46.13,171.69,0,2.15.07,4.4.65,6.44,2.93,10.21,11.67,15.79,22.53,15.84,64.66.32,129.33.24,193.99.11,4.69,0,9.59-.75,14.01-2.27,9.76-3.37,13.91-8.72,14.24-18.32.6-17.33.61-34.68.83-52.03.26-20.04.66-40.08.69-60.12.02-15.75-.4-31.51-.7-47.26-.18-9.5.48-19.15-.99-28.46-1.75-11.08-4.84-22.04-8.33-32.73-5.82-17.82-12.44-35.37-18.79-53.24Zm-49.6-53.92v40.11h17.04v-40.11h-17.04Zm-30.16-.04v40.22h16.12v-40.22h-16.12Z"/>
      <path class="cls-1" d="m307.38,68.45c-.19.21-.39.42-.58.63.19-.21.39-.42.58-.63Z"/>
      <path class="cls-1" d="m306.8,108.01c.19.21.39.42.58.63-.19-.21-.39-.42-.58-.63Z"/>
      <path class="cls-1" d="m229.78,384.48c-25.71,0-51.42.11-77.13-.08-5.58-.04-12.75-5.5-12.78-13.14-.14-31.24-.1-62.49-.13-93.73,0-4.41.12-8.82.04-13.23-.14-7.7,6.45-12.73,12.97-13.6,1.09-.14,2.2-.11,3.3-.11,49.84,0,99.67-.01,149.51,0,7.72,0,13.55,3.89,15.41,10.47.65,2.29.93,4.76.93,7.14.06,32.96.04,65.92.04,98.88,0,10.64-6.75,17.41-17.22,17.33-24.98-.19-49.96-.06-74.94-.06,0,.04,0,.08,0,.13Zm-76.48-13.88h3.95c48.83,0,97.67-.04,146.5.08,3.62,0,4.51-1.08,4.5-4.58-.12-32.58-.07-65.16-.07-97.73,0-1.2,0-2.4,0-3.87-1.78-.11-3.21-.27-4.65-.27-48.59-.01-97.18.02-145.77-.09-3.48,0-4.56.84-4.55,4.45.14,32.7.08,65.4.08,98.1,0,1.19,0,2.38,0,3.91Z"/>
      <path class="cls-1" d="m195.33,220.46c-17.87,0-35.74,0-53.6,0-3.59,0-6.05-1.8-6.89-5.51-.75-3.31.84-5.89,3.68-7.39,16.47-8.71,33-17.32,49.51-25.96,18.91-9.9,37.77-19.91,56.75-29.66,7.43-3.82,11.75.35,11.82,7.17.18,17.39.09,34.78.05,52.17-.02,6.33-2.98,9.21-9.18,9.2-17.38,0-34.76,0-52.14,0h0Zm47.53-52.09c-24.37,12.69-48.24,25.12-72.12,37.56.09.2.19.39.28.59h71.83v-38.15Z"/>
    </g>
  </g>
</svg>