<?xml version="1.0" encoding="UTF-8"?>
<svg id="Capa_1" data-name="Capa 1" xmlns="http://www.w3.org/2000/svg" viewBox="0 0 480 480">
  <defs>
    <style>
      .cls-1 {
        fill: #0071ce;
        stroke-width: 0px;
      }
    </style>
  </defs>
  <g id="IOY2zO">
    <g>
      <path class="cls-1" d="m369.64,376.96c8.1,13.97,20.89,13.75,34.33,13.53,17.34-.28,27.4,16.14,19.06,29.96-4.7,7.78-12.13,9.8-20.7,9.78-39.67-.09-79.33-.04-119-.04-61.14,0-122.28,0-183.42-.04-4.47,0-8.98,0-13.39-.6-13.44-1.82-23.23-13.55-22.65-26.76.6-13.64,11.61-25.06,25.15-25.52,10.72-.37,21.52.41,32.18-.49,3.43-.29,6.56-4.27,9.83-6.57-3.13-2.46-6.07-6.75-9.41-7.08-21.52-2.14-37.64-11.83-48.16-30.94-60.31-109.57,3.46-247.67,126.25-273.28,138.9-28.97,257.89,99.61,218.55,236.18-8.79,30.5-21.37,51.68-48.62,81.88Zm-122.5,40.28c16.41,0,32.82,0,49.23,0,35.51-.01,71.01-.05,106.52-.03,4.78,0,9.56-.39,9.82-6.42.28-6.55-4.57-7.43-9.8-7.41-7.16.04-14.34.28-21.47-.22-2.99-.21-7.43-1.24-8.53-3.32-4.46-8.42-11.24-10.65-20.05-10.38-2.09.07-5.66-2.19-6.06-3.95-.53-2.29.92-5.5,2.44-7.67,1.66-2.37,4.41-3.96,6.59-5.99,35.74-33.3,55.45-74.24,56.98-123.15,2.46-78.36-44.17-145.71-118.15-171.9-68.05-24.09-148.92-.74-193.1,57.18-44.67,58.57-50.22,121.81-18.9,188.35,8.04,17.07,21.31,26.82,40.41,28.02,12.88.81,20.78,8.29,20.7,19.75-.08,11.74-8.61,19.44-21.81,19.58-10.74.12-21.5-.2-32.21.3-7.71.36-12.6,6.1-12.7,13.51-.1,7.41,4.78,12.84,12.56,13.57,3.85.36,7.75.17,11.63.17,48.63,0,97.27,0,145.9,0Z"/>
      <path class="cls-1" d="m378.88,242.32c.3,77.01-62.95,140.93-139.4,140.86-79.48-.08-141.58-62.14-142.01-141.93-.41-75.57,63.33-139.12,139.96-139.55,77.87-.44,141.13,62.46,141.44,140.63Zm-140.22-127.82c-69.74-.07-127.89,57.02-128.41,126.06-.54,71.87,56.38,129.52,128.08,129.74,70.11.21,127.5-56.95,127.73-127.23.23-70.69-57.05-128.5-127.4-128.58Z"/>
      <path class="cls-1" d="m211.53,403.31c-14.59,0-29.17-.02-43.76.01-4.85.01-10.02-.91-9.09-6.72.4-2.51,5.7-6.01,8.82-6.06,29.16-.43,58.34-.21,87.51-.19,4.83,0,9.6.76,9.37,6.82-.23,6.22-5.44,6.06-9.99,6.07-14.29.02-28.57,0-42.86,0v.05Z"/>
      <path class="cls-1" d="m298.01,403.26c-4.16,0-8.5.73-12.4-.26-2.53-.65-6.03-3.75-6.12-5.88-.09-2.09,3.43-6.04,5.62-6.23,8.84-.77,17.81-.82,26.66-.16,2.33.17,4.39,3.83,6.58,5.89-2.33,2.22-4.33,5.68-7.05,6.39-4.17,1.09-8.83.29-13.29.27Z"/>
      <path class="cls-1" d="m236.92,122c64.78-1.45,120.25,51.62,121.72,116.44,1.52,67.11-50.21,122.82-115.48,124.38-68.9,1.64-124.3-50.46-125.54-118.07-1.23-66.89,51.59-121.24,119.3-122.75Zm82.41,46.78c-8.58,8.75-14.97,15.37-21.47,21.88-9.72,9.74-21.41,11.61-32.56,5.34-10.97-6.17-15.42-17.47-11.99-30.63,2.37-9.11,4.81-18.21,7.45-28.16-15.54-2.87-29.96-3.79-44.12.28-.17,1.46-.3,1.78-.23,2.05,2.17,8.35,4.44,16.68,6.53,25.06,3.7,14.78-.49,25.08-12.79,31.8-10.99,6-22.23,3.88-32.22-6.51-6.29-6.54-12.18-13.47-20.05-22.24-8.82,15.42-15.91,27.81-23.68,41.4,11.77,3.13,20.96,5.4,30.05,8.02,12.95,3.73,20.15,12.8,20.29,25.1.15,12.79-7.21,22.13-20.45,25.83-9.14,2.55-18.3,4.99-29.8,8.11,7.73,13.5,14.81,25.86,23.45,40.96,8.23-8.98,14.27-15.84,20.62-22.42,9.86-10.21,21.67-11.96,33.23-5.24,11.03,6.41,15.02,17.22,11.4,30.8-2.36,8.85-4.66,17.72-7.48,28.43h45.47c-2.77-10.41-5.1-19.24-7.47-28.05-3.77-14,.2-24.6,11.82-31.44,11.19-6.58,22.67-4.54,33.09,5.81,6.43,6.39,12.93,12.72,19.79,19.47,10.66-12.01,18.03-24.12,22.14-38.97-9.41-2.52-17.7-4.77-26.01-6.94-14.91-3.9-22.19-12.47-22.14-26.17.04-13.24,7.19-21.88,21.54-25.81,8.55-2.34,17.16-4.48,28.48-7.42-7.81-13.76-14.84-26.15-22.89-40.34Zm-152.23,152.87c.4,1.39.8,2.78,1.21,4.18,11.09,6.33,22.19,12.66,34.51,19.69,3.39-12.35,7.08-22.17,8.37-32.3.51-4.02-3.29-10.59-6.98-12.57-3.63-1.95-10.72-1.2-14.31,1.26-8.24,5.65-15.27,13.05-22.8,19.74Zm177.57-99.78c-11.34,2.96-21.37,4.74-30.67,8.41-3.83,1.51-8.01,6.86-8.45,10.86-.45,4.04,2.5,11.07,5.78,12.43,10.18,4.23,21.23,6.39,33.34,9.75v-41.45Zm-33.74,102.4c-9.47-8.94-16.27-16.59-24.38-22.43-3.47-2.5-10.5-2.99-14.37-1.15-3.51,1.67-7.3,8.05-6.8,11.81,1.38,10.43,4.92,20.57,8.22,33.15,12.66-7.25,23.8-13.63,37.33-21.38Zm-145.26-163.5c9.6,9.04,16.71,16.74,24.94,22.96,3.04,2.3,9.64,2.83,12.95,1.06,3.73-2,8.25-7.87,7.76-11.41-1.5-10.92-5.22-21.54-8.57-34.1-12.62,7.32-23.54,13.64-37.08,21.49Zm-33.94,102.35c11.47-2.93,21.22-4.6,30.26-8.11,3.89-1.52,8.23-6.56,8.84-10.54.62-4.04-2-11.38-5.13-12.68-10.42-4.36-21.7-6.66-33.97-10.13v41.47Zm177.64-100c-.38-1.32-.77-2.64-1.15-3.96-11.19-6.33-22.37-12.65-34.57-19.55-3.19,11.66-6.76,21.25-8.07,31.15-.56,4.21,2.54,10.14,5.87,13.32,4.36,4.17,10.46,3.78,15.41-.65,7.53-6.74,15.02-13.53,22.52-20.3Z"/>
      <path class="cls-1" d="m239.47,216.07c14.6.61,26.19,13.33,25.35,27.83-.81,14.1-13.47,25.7-27.4,25.11-15.25-.65-26.39-13.03-25.58-28.44.73-14.05,13.2-25.1,27.63-24.5Zm-1.33,39.92c7.79.11,13.57-5.58,13.64-13.43.07-7.61-5.89-13.73-13.47-13.81-7.21-.08-13.92,6.51-13.86,13.62.06,7.66,5.95,13.51,13.69,13.62Z"/>
      <path class="cls-1" d="m288.03,218.49c-4.16,3.18-6.53,6.39-8.71,6.26-2.27-.13-6.04-3.46-6.07-5.43-.03-2.19,3.18-5.81,5.45-6.23,2.11-.39,4.84,2.63,9.34,5.4Z"/>
      <path class="cls-1" d="m238.54,204.4c-3.09-4.27-6.31-6.8-6.08-8.96.24-2.21,3.62-5.06,6.1-5.65,1.38-.33,5.2,3.33,5.26,5.27.07,2.42-2.6,4.92-5.27,9.34Z"/>
      <path class="cls-1" d="m238,298.46c-2.85-4.3-5.92-6.91-5.68-9.15.24-2.2,3.81-5.49,6.01-5.57,1.88-.07,5.35,3.66,5.47,5.85.13,2.27-2.92,4.73-5.81,8.87Z"/>
      <path class="cls-1" d="m196.88,209.73c3.32,4.23,6.55,6.54,6.49,8.76-.06,2.23-3.38,4.38-5.27,6.57-2.15-1.88-5.65-3.52-6.06-5.72-.4-2.18,2.32-4.94,4.84-9.6Z"/>
      <path class="cls-1" d="m287.92,266.15c-4.36,2.81-6.94,5.78-9.1,5.5-2.24-.29-4.08-3.72-6.09-5.78,2.12-2.03,4.08-5.42,6.4-5.69,2.1-.24,4.59,2.93,8.8,5.97Z"/>
      <path class="cls-1" d="m197.5,256.84c3.01,4.41,6.12,6.97,5.87,9.14-.27,2.27-3.77,4.15-5.85,6.21-2-2.09-5.34-4.03-5.6-6.32-.25-2.17,2.74-4.7,5.59-9.03Z"/>
    </g>
  </g>
</svg>