<svg xmlns="http://www.w3.org/2000/svg" viewBox="0 0 443.73 132.81"><defs><style>.cls-1{fill:#0276dd;}.cls-2{fill:#76b72a;}</style></defs><g id="Capa_2" data-name="Capa 2"><g id="Layer_1" data-name="Layer 1"><path class="cls-1" d="M428.68,77.93,419,97.67a175.48,175.48,0,0,0-7,16.57h-.3c-.07-5.78-.61-11.71-.92-16.57l-1.61-19.74H394.33l-13,51.94h10.18l5.17-21.41C398,102.84,399.5,95,401,88.19h.16c.31,6.92.71,14.11,1.15,19.8l1.85,21h8.64l10.62-21.28c2.86-5.71,6.09-12.87,8.94-19.56h.24c-1.48,7.46-2.62,14.65-3.47,20.27l-3.16,21.41h10.79l7-51.94Z"/><path class="cls-1" d="M371.27,77.93l-5.71,30c-1.85,9.64-5.62,13.48-11.49,13.48-4.94,0-7.56-3.23-7.56-7.47a29.5,29.5,0,0,1,.61-6.08L352.73,78H341.64l-5.48,29a39.93,39.93,0,0,0-.77,7.24c0,11,6.55,16.64,17.25,16.57,14.18,0,21-7.56,24-23.27L382.29,78h-11Z"/><polygon class="cls-1" points="310.7 129.87 321.79 129.87 331.67 77.94 320.57 77.94 310.7 129.87"/><polygon class="cls-1" points="227.02 87.41 246.59 87.41 248.44 77.94 217.68 77.94 207.83 129.87 239.73 129.87 241.51 120.39 220.77 120.39 223.16 107.82 241.58 107.82 243.43 98.51 224.87 98.51 227.02 87.41"/><path class="cls-1" d="M284.2,97.64a176.61,176.61,0,0,0-7,16.57h-.31c-.07-5.78-.6-11.7-.91-16.57l-1.61-19.73H259.48l-13.06,52h10.19l5.17-21.41c1.31-5.62,2.85-13.42,4.3-20.27h.17c.3,6.92.7,14.11,1.15,19.8l1.84,21h8.64l10.63-21.28c2.85-5.71,6.08-12.87,8.94-19.56h.23c-1.47,7.46-2.62,14.65-3.46,20.27l-3.16,21.41h10.79l7-51.94h-15Z"/><path class="cls-1" d="M200.2,80.56c-3.63-2.32-8.71-3-13.65-3a64.88,64.88,0,0,0-13.88,1.31l-9.71,51h10.95l3.86-20.51h3.4c4.4,0,6.55,1.92,7.09,8.24s1,10.86,1.48,12.24h11.39c-.93-2.15-1.31-8.94-2-14.79-.47-4.7-1.85-8.1-4.94-9.48v-.23c6.7-2.16,11.8-7,11.8-14.73A11.2,11.2,0,0,0,200.2,80.56ZM184,101h-4.56l2.69-14.42a17.61,17.61,0,0,1,4.31-.38c4.47,0,7.93,1.85,7.93,6.09C194.42,97.43,190,101,184,101Z"/><path d="M137.7,65.3a14.07,14.07,0,0,0,5.88-1l-.26-4.23a11.73,11.73,0,0,1-4.49.86c-5.81,0-7.54-5.08-7.54-12.4,0-7.54,2.51-15.26,6.53-20a10.91,10.91,0,0,1,8.26-4.1,9.06,9.06,0,0,1,3.49.58L151,20.78a10.06,10.06,0,0,0-4.42-.8,16.73,16.73,0,0,0-12,5.34c-5.95,6.06-8.45,15.7-8.45,24.48C126.21,57.06,128.53,65.3,137.7,65.3Z"/><path d="M178.1,65.44c11,0,16.11-14.4,16.11-23.9,0-4-1.32-9-6.28-9-2.57,0-4.89,1.27-7.18,4.57h-.14l3.44-17.84H179.3l-7.19,36.84a23.52,23.52,0,0,0-.33,3.56C171.76,62.93,173.75,65.44,178.1,65.44Zm-1.19-10.16L179,45.52c1-5.22,4-8.85,6.81-8.85,2.57,0,3.44,2.39,3.44,6.06,0,5.74-3.37,18.89-9.9,18.89-2,0-2.72-1.31-2.72-3.16A23.76,23.76,0,0,1,176.91,55.28Z"/><path d="M155.07,65.44c9.83,0,13.81-14.47,13.81-22.59,0-4.28-1-10.37-7.4-10.37-9.57,0-14.13,13.53-14.13,22.12C147.35,60.29,149.2,65.44,155.07,65.44Zm5.6-29c2.76,0,3.37,2.9,3.37,6.2,0,5.34-2.44,19-8.27,19-3.37,0-3.62-3.77-3.62-7.4C152.15,47.88,155.4,36.39,160.67,36.39Z"/><path d="M213.16,59.63a10.83,10.83,0,0,1-5.73,1.71c-2.5,0-4.17-1.45-4.89-4.1a19.76,19.76,0,0,1-.19-6.46c8.78,0,15.59-3.3,15.59-11.09,0-3.7-1.92-7.19-6.53-7.19-9.18,0-14,12.88-14,21.54,0,6.13,2.18,11.28,8.92,11.28a15.48,15.48,0,0,0,7.54-2Zm-2.5-23.1c1.85,0,2.83,1.26,2.83,3.51,0,5.22-5.4,6.93-10.55,6.93C204.71,40,207.73,36.53,210.66,36.53Z"/><path d="M226.44,48.14c.93-4.75,4.42-10.7,8.66-10.7.18,0,.53.07.65.07l.91-5a3.45,3.45,0,0,0-.86-.07c-3.23,0-6,2.58-8,6.53h-.19c.33-2.64.4-4.35.54-6H224a102.1,102.1,0,0,1-1.38,10.48l-4,21.47h4.76Z"/><path d="M286.05,48.14c.91-4.75,4.42-10.7,8.66-10.7.19,0,.54.07.66.07l.91-5a3.57,3.57,0,0,0-.87-.07c-3.23,0-6,2.58-8,6.53h-.19c.33-2.64.4-4.35.54-6h-4.16a102.65,102.65,0,0,1-1.39,10.48l-4,21.47H283Z"/><path d="M238.44,60.22c0,3.11,1.92,5.08,5.29,5.08a10.42,10.42,0,0,0,3.44-.47l.4-3.7a7.91,7.91,0,0,1-1.92.14c-1.59,0-2.25-.87-2.25-2.43a25.09,25.09,0,0,1,.47-4l3.44-18.23h6l.72-3.63h-6l1.52-7.47-5.29,2-1,5.41h-3.91l-.66,3.62h3.84L239.07,55A27.06,27.06,0,0,0,238.44,60.22Z"/><path d="M259.11,65.44c3.11,0,6.06-1.6,8.59-5.55h.14l-.4,5h4.24c.26-2.58.58-6.27,1.45-11l4-21h-4.76l-3.44,18.42c-1.05,5.69-4.35,10-7.53,10-2,0-2.76-1.31-2.76-3.3a22.17,22.17,0,0,1,.58-5L263,33H258.2l-3.89,20.86a26,26,0,0,0-.54,5.08C253.75,62.35,255.34,65.44,259.11,65.44Z"/><path d="M300.05,65.44c2.31,0,5.15-1.2,8.26-6.6h.19c-.19,2.5-.4,4.28-.47,6.06h4.28a70,70,0,0,1,1.38-13.13l3.7-18.24a16.4,16.4,0,0,0-5.87-1.05c-12.34,0-17.49,14.25-17.49,24C294,62.28,296.28,65.44,300.05,65.44ZM298.85,55c.14-6.93,4.17-18.68,11.24-18.68a6.66,6.66,0,0,1,2,.26l-2.39,12.07c-1.26,6.42-4.68,12.69-7.91,12.69C299.51,61.34,298.71,59,298.85,55Z"/><path class="cls-1" d="M156.43,80.93c-3.77-2.62-9.11-3.39-13.79-3.39a61.89,61.89,0,0,0-13.55,1.31l-9.64,51h10.86l3.53-18.72c1.15.07,2.69.3,4.54.3,6.32,0,12.41-1.54,16.64-4.84a18.06,18.06,0,0,0,7-14.56A12.71,12.71,0,0,0,156.43,80.93Zm-16.57,21.51a22.35,22.35,0,0,1-4.31-.37l2.93-15.33a26.82,26.82,0,0,1,4.54-.31c4.23,0,7.86,1.62,7.86,6.55C150.88,98.18,146.48,102.44,139.86,102.44Z"/><path class="cls-2" d="M106.22,58.75C103,73.61,97.83,87.9,88.79,100.26c-8.71,11.93-17.63,19.83-28.91,29.09-1.45,1.05-2.75,2-4.14,3.09l0,0a4.25,4.25,0,0,1-.39.35c-4.93-1.92-23.89-19.53-26.1-23,6.82-3.84,12.09-7,17.75-10.94,0-.06,3.42-2.52,8.74-6.77h0C69.61,81,96.41,57.8,109.33,33.2,110.81,37,107.27,53.92,106.22,58.75Z"/><path class="cls-1" d="M102.62,19.21c-1.5,5.48-7.56,15-14.13,23.95S74.84,60.39,71.32,63.4l-6,5.82c-2.47,2.45-5.8,5.42-9.58,8.58C45.08,86.61,30.79,96.7,20.88,99.27l-1.61-2c-.31-.45-.73-1.1-1.16-1.72l-6.2-11.69C3.9,65.38.1,43.83,0,23.11l2.89-1.58H2.65c.58-.3,1.21-.58,1.88-.89,6.33-3,14.86-6.45,23.47-9.9S45.37,3.84,52.16.85A6.27,6.27,0,0,1,55.72,0a16.88,16.88,0,0,1,3.44,1.34Z"/></g></g></svg>