<?xml version="1.0" encoding="utf-8"?>
<!-- Generator: Adobe Illustrator 27.9.0, SVG Export Plug-In . SVG Version: 6.00 Build 0)  -->
<svg version="1.1" id="Capa_1" xmlns="http://www.w3.org/2000/svg" xmlns:xlink="http://www.w3.org/1999/xlink" x="0px" y="0px"
	 viewBox="0 0 480 480" style="enable-background:new 0 0 480 480;" xml:space="preserve">
<style type="text/css">
	.st0{fill:#0071CE;}
</style>
<g id="_x34_RQVPi.tif">
	<g>
		<path class="st0" d="M431.6,215.5c0.9-3.1,2.9-4.3,6-4.2c3.3,0.2,5.3,1.6,5.8,4.9c0.2,0.3,0.3,0.7,0.5,1c0,17,0.1,34,0.1,51.1
			c0,38.5-0.1,77-0.1,115.5c0,0.3,0.1,0.6,0.1,0.9c1,0.3,2,0.7,3,0.8c6.5,0.2,10,1.9,10.6,8.3c0.9,9.4,0.5,18.9-0.2,28.3
			c-0.3,3.8-3.7,6.5-8,7c-46.9,0-93.8-0.1-140.7-0.1c-49,0-98,0-147,0.1c-3.7-1-4.3-3.9-4-7.1c0.3-3.1,2.4-4.5,5.3-4.8
			c1.7-0.2,3.3-0.3,5-0.3c92.3,0,184.6,0,276.9,0c0.3-0.2,0.6-0.3,0.9-0.5c0-6.1,0-12.2,0-18.3c-0.3-0.2-0.6-0.3-0.9-0.5
			c-134,0-267.9,0-401.9,0c-0.3,0.2-0.6,0.3-0.9,0.5c0,6.1,0,12.2,0,18.3c0.3,0.2,0.6,0.3,0.9,0.5c29.1,0,58.3,0,87.4,0
			c1.5,0,3.1,0,4.6,0.3c2.9,0.6,4.9,2,5.1,5.4c0.2,3.3-0.7,5.6-4.2,6.5c-31.3,0-62.5,0-93.8,0c-1.2,0-2.3,0.5-3.5,0.8
			c-0.3,0-0.6,0-0.8,0c-2.8-2.5-5.6-5-8.4-7.5c0-10.1,0-20.1,0-30.2c2.8-6.2,8.1-7.5,14.1-7.6c0.1-0.3,0.2-0.6,0.3-0.8
			c0-46.5-0.1-92.9-0.1-139.4c0-26.1,0.1-52.2,0.1-78.3c-0.1-0.3-0.2-0.6-0.3-0.8c-6.3,0.5-11.3-1.6-14.1-7.6c0-10.1,0-20.1,0-30.2
			c2.5-3,4.2-7.1,9.1-6.8c13.9,0,27.9,0.1,41.8,0c0.9,0,1.8-0.4,2.8-0.6c0.3-5.2,0.7-10.3,0.7-15.5c0-3.7,0.7-7.1,3.9-8.9
			c2.4-1.4,5.4-2.1,8.2-2.5c3-0.4,6.1-0.1,9.7-0.1c0-9.1-0.1-18.1,0-27c0-2,0-4.4,1-6c1.3-1.9,3.7-3.2,5.6-4.7
			c0.9-0.2,1.7-0.4,2.6-0.6c8.9,0,17.8,0,26.8,0c0.6,0.2,1.2,0.4,1.8,0.6c5.1,1.8,7.4,4.8,7.5,9.9c0,9.4,0,18.9,0,28.7
			c4.1,0,8,0,11.9,0c5.8,0,9.1,3.2,9.1,9c0,4.7,0,9.5,0,14.2c0,1,0.5,2,0.8,3c1.5,0.2,2.9,0.6,4.4,0.6c44.3,0,88.6,0,132.9,0
			c1.5,0,3-0.4,4.4-0.6c0.3-5.3,0.2-10.7,0.9-15.9c0.4-2.8,1.7-5.6,3.2-8c2-3.2,5.7-2.7,8.8-3c3-0.3,6.1-0.1,9.7-0.1
			c0-9.1-0.1-18.1,0-27c0-2,0-4.4,1-6c1.3-1.9,3.7-3.2,5.6-4.7c0.9-0.2,1.7-0.4,2.6-0.6c8.9,0,17.8,0,26.8,0
			c0.6,0.2,1.2,0.4,1.8,0.6c5,1.8,7.4,4.8,7.5,9.9c0,9.4,0,18.9,0,28.7c4.1,0,8,0,11.9,0c5.8,0,9.1,3.2,9.1,9c0,4.7,0,9.5,0,14.2
			c0,1,0.5,2,0.8,3c1,0.2,2.1,0.6,3.1,0.6c13.8,0,27.6,0,41.4,0c5.8,0.5,9.8,4.8,9.9,10.9c0.1,7.5,0.2,15,0,22.5
			c-0.1,6.6-5.7,10.9-14.1,11.1c-0.1,0.3-0.2,0.6-0.3,0.8c0,7.2,0,14.5,0,21.7c-0.2,0.6-0.4,1.2-0.5,1.8c-1.2,3.7-3.9,5.4-7.5,4.9
			c-3.6-0.5-4.7-3.5-4.8-6.8c-0.1-3.8,0-7.5,0-11.3c0-3.6,0-7.2,0-11c-124.8,0-249.2,0-374,0c0,73,0,146,0,219.2
			c124.5,0,249,0,374.1,0c0-55.5,0-111,0-166.5C431.3,217.3,431.4,216.4,431.6,215.5z M349.7,69c0,7.8,0,15.6,0,23.4
			c0.2,0.2,0.4,0.5,0.7,0.7c6.1,0,12.3,0,18.4,0c0.2-0.2,0.5-0.5,0.7-0.7c0-7.8,0-15.6,0-23.4c-0.2-0.2-0.4-0.5-0.7-0.7
			c-6.1,0-12.3,0-18.4,0C350.2,68.6,349.9,68.8,349.7,69z M138.2,69c-0.2-0.2-0.4-0.5-0.7-0.7c-6.1,0-12.3,0-18.4,0
			c-0.2,0.2-0.5,0.5-0.7,0.7c0,7.8,0,15.6,0,23.4c0.2,0.2,0.4,0.5,0.7,0.7c6.1,0,12.3,0,18.4,0c0.2-0.2,0.4-0.5,0.7-0.7
			C138.2,84.6,138.2,76.8,138.2,69z M328.5,120.3c1,0.2,2.1,0.6,3.1,0.6c18.3,0,36.6,0,55,0c1.1,0,2.1-0.4,3.2-0.6
			c0.4-4.6,0.7-9.1,1.1-13.7c-21.4,0-42.1,0-63.5,0C327.8,111.4,328.2,115.8,328.5,120.3z M158.5,120.4c0.4-4.6,0.7-9.1,1.1-13.7
			c-21.4,0-42.1,0-63.5,0c0.4,4.7,0.8,9.2,1.2,13.6c1,0.2,2.1,0.6,3.1,0.6c18.3,0,36.6,0,55,0C156.4,120.9,157.5,120.5,158.5,120.4z
			 M43,133.2c-0.3,0.1-0.6,0.3-0.9,0.4c0,6.1,0,12.2,0,18.3c0.3,0.2,0.6,0.4,0.9,0.6c46.5,0,93,0,139.4,0c87.5,0,175,0,262.5,0
			c0.3-0.2,0.6-0.4,0.8-0.6c0-6.1,0-12.2,0-18.3c-0.3-0.1-0.6-0.3-0.9-0.4c-36.2,0-72.3,0-108.5,0C238.6,133.2,140.8,133.2,43,133.2
			z"/>
		<path class="st0" d="M161.8,430c0-0.3,0-0.5-0.1-0.8c49,0,98-0.1,147-0.1c46.9,0,93.8,0,140.7,0.1c-0.1,0.2-0.1,0.5-0.1,0.8
			C353.4,430,257.6,430,161.8,430z"/>
		<path class="st0" d="M238.1,198.2c14.2,0,28.5,0,42.7,0c0.3,0.2,0.6,0.4,0.9,0.6c6.1,1.2,9.2,6.5,6.9,12.7
			c-5.2,13.9-10.8,27.8-16.2,41.7c-1.7,4.4-3.4,8.8-5.2,13.5c4.4,0,8.4,0.2,12.4,0c4.3-0.2,7.3,1.8,9.3,5.3c1.4,2.5,0,8.8-2.4,11.1
			c-12,11.3-24.1,22.5-36.2,33.7c-5,4.6-9.9,9.3-14.8,14c-6.3,6-12.6,12.2-18.9,18.1c-3.7,3.4-8.9,4.6-12.9,1.2
			c-4-3.4-5.1-7.4-2.7-12.5c6.5-13.9,13.1-27.9,19.9-42.4c-4.4,0-8.4-0.3-12.3,0.1c-7.6,0.6-12.7-7-9.9-13.8
			c7.7-18.7,15.1-37.5,22.6-56.2c2.6-6.5,4.9-13.1,7.7-19.5c1.4-3.2,3.2-6.5,7.4-6.9C236.9,198.6,237.5,198.4,238.1,198.2z
			 M241.6,211c-0.3,0.2-0.6,0.3-0.9,0.5c-4.2,10.1-8.4,20.2-12.4,30.3c-5.4,13.5-10.8,27-16.3,40.8c4.9,0,9.5,0.3,14.1-0.1
			c5.9-0.5,12.3,5.8,8.6,13.7c-3.9,8.2-7.8,16.4-11.7,24.6c-0.8,1.7-1.6,3.5-2.4,5.2c0.3,0.2,0.6,0.5,1,0.7
			c16.7-15.6,33.3-31.2,50.6-47.5c-3.8,0-6.5,0-9.3,0c-7.4-0.1-11.5-5.8-9-12.9c2.1-6.1,4.6-12.2,6.9-18.2
			c4.7-12.2,9.4-24.5,14.1-36.7c-0.3-0.2-0.6-0.3-0.9-0.5C263.2,211,252.4,211,241.6,211z"/>
		<path class="st0" d="M353.7,268.4c0-2.9-0.1-5.3,0-7.6c0.1-4.2,2.7-6.7,6.6-6.6c4.2,0.1,5.9,1.9,5.9,6.5c0.1,8.4,0.1,8.5,8.6,8.5
			c3.4,0,5.9,1.1,6.5,4.7c0.5,3.5-0.7,6.3-4.5,7c-3.3,0.6-6.7,0.9-10.5,1.3c0,2.4,0,5,0,7.6c0,4.3-1.7,6.1-5.8,6.2
			c-4.1,0.2-6.4-1.7-6.7-5.9c-0.2-2.6,0-5.3,0-8.4c-2.6,0-5,0-7.5,0c-4.2-0.1-7.7-3.3-7.6-6.8c0.1-3.3,3.8-6.5,7.7-6.5
			C348.7,268.3,351,268.4,353.7,268.4z"/>
		<path class="st0" d="M110.6,281c-3.7-0.6-4.7-3.5-4.8-6.4c-0.1-3.1,3.5-5.8,7.3-5.9c9.8-0.1,19.5,0,29.3,0
			c0.4,0.1,0.8,0.1,1.2,0.2c2.9,0.9,4.9,2.6,4.9,6c-0.1,3-1,5.3-4.1,6.1C133.1,281,121.9,281,110.6,281z"/>
		<path class="st0" d="M314.4,120.4c-1.5,0.2-3,0.6-4.4,0.6c-44.3,0-88.6,0-132.9,0c-1.5,0-2.9-0.4-4.4-0.6
			c4.9-0.1,9.7-0.2,14.6-0.2c40.8,0,81.7,0,122.5,0C311.4,120.1,312.9,120.3,314.4,120.4z"/>
		<path class="st0" d="M83.1,120.3c-0.9,0.2-1.8,0.6-2.8,0.6c-13.9,0-27.9,0-41.8,0c0.5-0.2,0.9-0.7,1.4-0.7
			C54.3,120.2,68.7,120.3,83.1,120.3z"/>
		<path class="st0" d="M448.5,120.9c-13.8,0-27.6,0.1-41.4,0c-1,0-2.1-0.4-3.1-0.6c14.3-0.1,28.5-0.1,42.8-0.1
			C447.3,120.1,447.9,120.6,448.5,120.9z"/>
		<path class="st0" d="M110.6,281c11.2,0,22.5,0,33.7,0c-0.9,0.3-1.8,0.7-2.7,0.7c-9.5,0.1-18.9,0.1-28.4,0
			C112.4,281.7,111.5,281.2,110.6,281z"/>
		<path class="st0" d="M114.9,55c-0.9,0.2-1.7,0.4-2.6,0.6C113.2,55.4,114.1,55.2,114.9,55z"/>
		<path class="st0" d="M346.2,55c-0.9,0.2-1.7,0.4-2.6,0.6C344.5,55.4,345.3,55.2,346.2,55z"/>
		<path class="st0" d="M431.6,215.5c-0.1,0.9-0.3,1.8-0.4,2.7C431.3,217.3,431.4,216.4,431.6,215.5z"/>
		<path class="st0" d="M443.4,189.7c0.2-0.6,0.4-1.2,0.5-1.8C443.8,188.5,443.6,189.1,443.4,189.7z"/>
		<path class="st0" d="M143.5,55.6c-0.6-0.2-1.2-0.4-1.8-0.6C142.3,55.2,142.9,55.4,143.5,55.6z"/>
		<path class="st0" d="M374.7,55.6c-0.6-0.2-1.2-0.4-1.8-0.6C373.6,55.2,374.1,55.4,374.7,55.6z"/>
		<path class="st0" d="M238.1,198.2c-0.6,0.2-1.2,0.4-1.8,0.6C236.9,198.6,237.5,198.4,238.1,198.2z"/>
		<path class="st0" d="M281.7,198.8c-0.3-0.2-0.6-0.4-0.9-0.6C281.1,198.4,281.4,198.6,281.7,198.8z"/>
		<path class="st0" d="M444,217.3c-0.2-0.3-0.3-0.7-0.5-1C443.6,216.6,443.8,217,444,217.3z"/>
		<path class="st0" d="M143.6,268.9c-0.4-0.1-0.8-0.1-1.2-0.2C142.8,268.8,143.2,268.8,143.6,268.9z"/>
		<path class="st0" d="M444.1,384.8c0-0.3-0.1-0.6-0.1-0.9C444,384.2,444,384.5,444.1,384.8z"/>
		<path class="st0" d="M444,166.2c0.1-0.3,0.2-0.6,0.3-0.8C444.2,165.7,444.1,165.9,444,166.2z"/>
		<path class="st0" d="M97.3,120.3c20.4,0,40.9,0,61.3,0.1c-1.1,0.2-2.1,0.6-3.2,0.6c-18.3,0-36.6,0-55,0
			C99.3,120.9,98.3,120.5,97.3,120.3z"/>
		<path class="st0" d="M328.5,120.3c20.4,0,40.9,0,61.3,0.1c-1.1,0.2-2.1,0.6-3.2,0.6c-18.3,0-36.6,0-55,0
			C330.6,120.9,329.6,120.5,328.5,120.3z"/>
		<path class="st0" d="M368.8,93.2c0.2-0.2,0.5-0.5,0.7-0.7C369.3,92.7,369,92.9,368.8,93.2z"/>
		<path class="st0" d="M444.9,152.4c0.3-0.2,0.6-0.4,0.8-0.6C445.5,152.1,445.2,152.2,444.9,152.4z"/>
		<path class="st0" d="M43.9,166.2c-0.1-0.3-0.2-0.6-0.3-0.8C43.7,165.7,43.8,165.9,43.9,166.2z"/>
		<path class="st0" d="M138.2,69c-0.2-0.2-0.4-0.5-0.7-0.7C137.7,68.6,138,68.8,138.2,69z"/>
		<path class="st0" d="M119.1,68.3c-0.2,0.2-0.5,0.5-0.7,0.7C118.6,68.8,118.9,68.6,119.1,68.3z"/>
		<path class="st0" d="M350.4,68.3c-0.2,0.2-0.4,0.5-0.7,0.7C349.9,68.8,350.2,68.6,350.4,68.3z"/>
		<path class="st0" d="M369.5,69c-0.2-0.2-0.4-0.5-0.7-0.7C369,68.6,369.3,68.8,369.5,69z"/>
		<path class="st0" d="M42.1,151.9c0.3,0.2,0.6,0.4,0.9,0.6C42.7,152.2,42.4,152.1,42.1,151.9z"/>
		<path class="st0" d="M118.4,92.5c0.2,0.2,0.4,0.5,0.7,0.7C118.9,92.9,118.6,92.7,118.4,92.5z"/>
		<path class="st0" d="M43.6,384.7c0.1-0.3,0.2-0.6,0.3-0.8C43.8,384.2,43.7,384.4,43.6,384.7z"/>
		<path class="st0" d="M43,397.8c-0.3,0.2-0.6,0.3-0.9,0.5C42.4,398.1,42.7,397.9,43,397.8z"/>
		<path class="st0" d="M445.8,398.3c-0.3-0.2-0.6-0.3-0.9-0.5C445.2,397.9,445.5,398.1,445.8,398.3z"/>
		<path class="st0" d="M445.8,133.6c-0.3-0.1-0.6-0.3-0.9-0.4C445.2,133.3,445.5,133.5,445.8,133.6z"/>
		<path class="st0" d="M42.1,416.5c0.3,0.2,0.6,0.3,0.9,0.5C42.7,416.8,42.4,416.7,42.1,416.5z"/>
		<path class="st0" d="M43,133.2c-0.3,0.1-0.6,0.3-0.9,0.4C42.4,133.5,42.7,133.3,43,133.2z"/>
		<path class="st0" d="M444.9,417c0.3-0.2,0.6-0.3,0.9-0.5C445.5,416.7,445.2,416.8,444.9,417z"/>
		<path class="st0" d="M137.5,93.2c0.2-0.2,0.4-0.5,0.7-0.7C138,92.7,137.7,92.9,137.5,93.2z"/>
		<path class="st0" d="M349.7,92.5c0.2,0.2,0.4,0.5,0.7,0.7C350.2,92.9,349.9,92.7,349.7,92.5z"/>
		<path class="st0" d="M241.6,211c-0.3,0.2-0.6,0.3-0.9,0.5C241,211.3,241.3,211.2,241.6,211z"/>
		<path class="st0" d="M274.9,211.5c-0.3-0.2-0.6-0.3-0.9-0.5C274.3,211.2,274.6,211.3,274.9,211.5z"/>
	</g>
</g>
</svg>
