<?xml version="1.0" standalone="no"?>
<!DOCTYPE svg PUBLIC "-//W3C//DTD SVG 20010904//EN"
 "http://www.w3.org/TR/2001/REC-SVG-20010904/DTD/svg10.dtd">
<svg version="1.0" xmlns="http://www.w3.org/2000/svg"
 width="1000.000000pt" height="572.000000pt" viewBox="0 0 1000.000000 572.000000"
 preserveAspectRatio="xMidYMid meet">

<g transform="translate(0.000000,572.000000) scale(0.100000,-0.100000)"
fill="#0276dd" stroke="none">
<path d="M7162 5410 c-12 -5 -55 -38 -95 -72 -189 -162 -373 -240 -637 -268
-169 -18 -236 -57 -289 -170 l-25 -55 0 -305 c0 -503 41 -736 179 -1015 152
-306 416 -533 798 -684 128 -51 185 -42 407 65 462 222 720 575 804 1103 43
264 45 798 4 893 -23 53 -89 120 -141 142 -19 8 -86 20 -149 26 -260 28 -455
110 -635 266 -34 30 -74 61 -90 69 -31 16 -96 19 -131 5z m296 -320 c154 -91
338 -149 534 -169 108 -11 145 -27 174 -75 16 -28 18 -57 18 -321 -1 -315 -13
-456 -59 -636 -101 -402 -323 -670 -706 -853 -63 -30 -135 -61 -161 -67 -43
-12 -52 -11 -120 16 -187 72 -362 181 -485 303 -205 201 -317 437 -369 782
-17 116 -32 645 -19 726 9 65 54 110 116 118 24 3 87 10 139 17 235 28 472
136 652 296 l49 43 85 -70 c47 -38 115 -88 152 -110z"/>
<path d="M7060 4744 c-245 -65 -432 -268 -476 -516 -51 -283 94 -572 350 -697
109 -53 170 -66 301 -65 92 1 123 5 190 28 174 60 304 173 379 330 53 110 66
167 66 293 0 185 -56 320 -190 453 -95 95 -184 147 -300 174 -82 20 -247 19
-320 0z m280 -145 c115 -26 242 -119 310 -225 46 -72 71 -165 71 -259 0 -142
-47 -254 -150 -355 -204 -201 -512 -196 -708 13 -60 64 -88 108 -113 182 -73
212 13 455 203 577 109 70 261 96 387 67z"/>
<path d="M7269 4173 l-158 -156 -50 46 c-42 39 -57 47 -89 47 -48 0 -72 -24
-72 -71 0 -31 11 -46 89 -122 129 -127 111 -133 354 111 167 168 197 203 197
228 0 49 -25 74 -72 74 -40 0 -47 -5 -199 -157z"/>
<path d="M3183 4271 c-107 -39 -176 -103 -227 -211 l-31 -65 -3 -373 -3 -373
-397 -197 c-547 -272 -594 -287 -1105 -351 -259 -33 -328 -45 -370 -64 -117
-54 -197 -163 -217 -295 -8 -48 -10 -217 -8 -499 4 -409 5 -431 26 -494 42
-128 133 -235 249 -296 34 -18 185 -67 366 -118 l307 -88 44 -91 c54 -114 121
-203 204 -272 267 -220 640 -242 925 -54 77 50 173 145 226 223 l32 47 1874 0
1874 0 41 -60 c219 -322 652 -430 1001 -249 393 205 534 699 307 1084 -24 41
-77 106 -128 156 -73 73 -102 94 -191 138 -124 61 -207 81 -347 81 -313 0
-571 -164 -708 -453 -49 -103 -66 -196 -62 -339 l3 -118 -1790 0 -1790 0 3
116 c3 82 -1 137 -13 192 -64 288 -296 522 -582 586 -83 18 -242 21 -329 5
-241 -44 -473 -238 -568 -473 -14 -37 -33 -108 -42 -159 -9 -50 -17 -93 -18
-94 -5 -6 -494 138 -524 154 -52 27 -117 105 -133 160 -10 34 -14 107 -14 248
l0 200 103 5 c98 5 105 7 127 33 35 39 41 88 19 134 -27 55 -70 73 -173 73
l-84 0 5 105 c4 85 9 111 25 133 45 61 62 66 349 101 436 53 629 100 864 212
l105 50 140 -139 c267 -264 381 -312 744 -312 188 0 190 0 220 25 60 51 62
132 5 186 -25 23 -31 24 -210 27 -101 2 -184 7 -184 11 0 21 132 587 139 594
14 14 227 56 341 66 63 6 260 11 438 11 l322 0 0 -340 0 -340 -215 0 c-238 0
-261 -5 -290 -60 -31 -59 -10 -136 44 -164 24 -13 247 -16 1637 -19 1123 -3
1645 -7 1729 -15 533 -52 868 -112 1168 -209 224 -72 387 -149 387 -184 0 -5
-42 -9 -95 -9 -89 0 -96 -2 -126 -28 -39 -35 -51 -107 -25 -147 37 -56 67 -65
229 -65 l147 0 0 -272 c0 -244 -2 -277 -19 -314 -23 -50 -64 -84 -103 -84 -37
0 -88 -22 -111 -48 -27 -29 -33 -92 -13 -130 28 -54 56 -65 144 -60 138 8 234
78 300 216 l37 77 3 331 c4 377 -1 414 -68 543 -78 149 -182 239 -364 316
-423 177 -1019 288 -1730 321 l-149 7 -526 334 c-289 184 -561 352 -603 374
l-77 39 -3 368 -3 368 -38 76 c-43 87 -98 142 -186 185 l-56 28 -1075 2
c-1028 2 -1077 2 -1127 -16z m534 -163 c34 -35 44 -128 19 -178 -10 -22 -13
-38 -7 -49 18 -34 39 -169 28 -180 -13 -13 -86 -14 -106 -2 -7 5 -19 35 -25
67 -11 56 -13 59 -44 62 l-32 3 0 -59 c0 -72 -11 -84 -77 -80 l-48 3 -3 210
c-1 115 0 216 3 223 4 11 32 13 135 10 126 -3 130 -4 157 -30z m481 -22 c2
-32 -1 -52 -10 -57 -7 -5 -48 -9 -90 -9 -71 0 -78 -2 -78 -20 0 -18 7 -20 58
-20 76 0 84 -7 80 -66 l-3 -49 -67 -3 c-64 -3 -68 -4 -68 -27 0 -24 2 -24 88
-27 l87 -3 3 -52 c4 -65 4 -65 -173 -61 l-130 3 -3 210 c-1 115 0 215 3 223 3
10 38 12 152 10 l148 -3 3 -49z m283 -30 c68 -113 69 -113 69 -20 0 43 4 85 9
92 5 9 25 12 62 10 l54 -3 3 -214 c3 -231 3 -231 -50 -231 -45 0 -56 10 -109
96 -28 46 -55 84 -60 84 -5 0 -9 -38 -9 -84 0 -67 -3 -85 -16 -90 -27 -10 -89
-7 -102 6 -13 13 -18 391 -6 423 5 12 18 15 57 13 l51 -3 47 -79z m684 24 l0
-55 -57 -3 -58 -3 -2 -162 -3 -162 -60 0 -60 0 -3 162 -2 162 -58 3 -57 3 -3
44 c-6 75 -13 72 185 69 l178 -3 0 -55z m315 -620 c0 -66 -2 -120 -4 -120 -3
0 -46 11 -96 25 -223 59 -238 60 -1050 60 -820 0 -843 -1 -1080 -61 -74 -19
-136 -34 -137 -34 -2 0 -3 56 -3 125 l0 125 1185 0 1185 0 0 -120z m-445 -280
c211 -20 400 -74 576 -163 57 -29 263 -154 456 -277 l353 -225 -898 -3 c-493
-1 -903 0 -909 3 -10 3 -13 79 -13 333 0 181 3 332 7 335 10 11 306 8 428 -3z
m-2059 -197 c-3 -10 -24 -99 -46 -197 -22 -99 -42 -182 -45 -184 -2 -3 -59 49
-127 116 l-122 120 159 80 c88 45 166 81 173 81 8 1 11 -6 8 -16z m-310 -1394
c90 -27 146 -60 216 -127 74 -71 114 -134 144 -227 60 -188 10 -389 -131 -530
-69 -69 -125 -105 -210 -133 -194 -65 -392 -16 -541 132 -189 190 -213 465
-59 681 133 187 368 269 581 204z m5098 5 c235 -61 400 -277 399 -524 -1 -247
-181 -463 -428 -515 -87 -18 -122 -18 -208 0 -247 52 -427 271 -427 519 1 98
12 152 50 231 68 140 198 249 347 290 67 18 193 18 267 -1z"/>
<path d="M3550 3985 c0 -33 2 -35 35 -35 33 0 35 2 35 35 0 33 -2 35 -35 35
-33 0 -35 -2 -35 -35z"/>
<path d="M2545 1271 c-16 -10 -76 -66 -132 -124 l-103 -106 0 -55 c0 -48 4
-58 31 -85 27 -27 37 -31 85 -31 l55 0 111 108 c117 114 138 143 138 192 0 95
-104 152 -185 101z"/>
<path d="M7472 1270 c-51 -31 -68 -101 -38 -158 8 -15 63 -75 124 -134 l109
-108 54 0 c57 0 87 16 108 57 15 30 14 89 -3 121 -16 29 -185 199 -226 226
-33 22 -88 20 -128 -4z"/>
<path d="M3633 1440 c-40 -24 -53 -48 -53 -100 0 -48 22 -85 61 -106 43 -22
2826 -21 2869 1 55 28 76 105 45 165 -33 64 65 60 -1482 60 -1377 0 -1409 -1
-1440 -20z"/>
</g>
</svg>
